<svg width="250" height="250" xmlns="http://www.w3.org/2000/svg" xml:space="preserve" enable-background="new 0 0 250 250" version="1.1">
 <defs>
  <pattern overflow="visible" viewBox="2.1 -70.9 69 69" id="Òî_xF7_å_xF7_íûé_óçîð__x22_Ïîëüêà_x22_" patternUnits="userSpaceOnUse" height="69" width="69" y="10085" x="-1025">
   <g id="svg_1">
    <polygon id="svg_2" points="71.1,-1.9 2.1,-1.9 2.1,-70.9 71.1,-70.9   " fill="none"/>
    <polygon id="svg_3" points="71.1,-1.9 2.1,-1.9 2.1,-70.9 71.1,-70.9   " fill="#F7BC60"/>
    <g id="svg_4">
     <path id="svg_5" d="m61.8,-71.7c0,0.1 0,0.1 0,0.2c-0.1,0.1 -0.1,0.1 -0.2,0.1c-0.1,0.1 -0.1,0.3 -0.1,0.4c-0.2,0.1 0,0.2 0,0.3c0,0 0,0.1 0,0.2c0,0.1 0,0.3 0.1,0.4c0.1,0.2 0.3,0.4 0.4,0.5c0.2,0.1 0.4,0.6 0.6,0.6c0.2,0 0.4,-0.1 0.5,-0.1c0.2,0 0.4,0 0.6,-0.1c0.2,-0.1 0.1,-0.3 0.3,-0.5c0.1,-0.1 0.3,0 0.4,-0.1c0.2,-0.1 0.3,-0.3 0.4,-0.5c0,-0.1 0,-0.1 0,-0.2c0,-0.1 0.1,-0.2 0.1,-0.3c0,-0.1 -0.1,-0.1 -0.1,-0.2c0,-0.1 0,-0.2 0,-0.3c0,-0.2 0,-0.4 -0.1,-0.5c-0.4,-0.7 -1.2,-0.9 -2,-0.8c-0.2,0 -0.3,0.1 -0.4,0.2c-0.2,0.1 -0.1,0.2 -0.3,0.2c-0.1,0 -0.2,0.1 -0.2,0.2c0,0.3 0,0.3 0,0.3c0,0.1 0,0.1 0,0" fill="#FFFFFF"/>
     <path id="svg_6" d="m54.1,-71.7c0,0.1 0,0.1 0,0.2c-0.1,0.1 -0.1,0.1 -0.2,0.1c-0.1,0.1 -0.1,0.3 -0.1,0.4c-0.2,0.1 0,0.2 0,0.3c0,0 0,0.1 0,0.2c0,0.1 0,0.3 0.1,0.4c0.1,0.2 0.3,0.4 0.4,0.5c0.2,0.1 0.4,0.6 0.6,0.6c0.2,0 0.4,-0.1 0.5,-0.1c0.2,0 0.4,0 0.6,-0.1c0.2,-0.1 0.1,-0.3 0.3,-0.5c0.1,-0.1 0.3,0 0.4,-0.1c0.2,-0.1 0.3,-0.3 0.4,-0.5c0,-0.1 0,-0.1 0,-0.2c0,-0.1 0.1,-0.2 0.1,-0.3c0,-0.1 -0.1,-0.1 -0.1,-0.2c0,-0.1 0,-0.2 0,-0.3c0,-0.2 0,-0.4 -0.1,-0.5c-0.4,-0.7 -1.2,-0.9 -2,-0.8c-0.2,0 -0.3,0.1 -0.4,0.2c-0.2,0.1 -0.1,0.2 -0.3,0.2c-0.1,0 -0.2,0.1 -0.2,0.2c0,0.3 0,0.3 0,0.3c0,0.1 0,0.1 0,0" fill="#FFFFFF"/>
     <path id="svg_7" d="m46.4,-71.7c0,0.1 0,0.1 0,0.2c-0.1,0.1 -0.1,0.1 -0.2,0.1c-0.1,0.1 -0.1,0.3 -0.1,0.4c-0.2,0.1 0,0.2 0,0.3c0,0 0,0.1 0,0.2c0,0.1 0,0.3 0.1,0.4c0.1,0.2 0.3,0.4 0.4,0.5c0.2,0.1 0.4,0.6 0.6,0.6c0.2,0 0.4,-0.1 0.5,-0.1c0.2,0 0.4,0 0.6,-0.1c0.2,-0.1 0.1,-0.3 0.3,-0.5c0.1,-0.1 0.3,0 0.4,-0.1c0.2,-0.1 0.3,-0.3 0.4,-0.5c0,-0.1 0,-0.1 0,-0.2c0,-0.1 0.1,-0.2 0.1,-0.3c0,-0.1 -0.1,-0.1 -0.1,-0.2c0,-0.1 0,-0.2 0,-0.3c0,-0.2 0,-0.4 -0.1,-0.5c-0.4,-0.7 -1.2,-0.9 -2,-0.8c-0.2,0 -0.3,0.1 -0.4,0.2c-0.2,0.1 -0.1,0.2 -0.3,0.2c-0.1,0 -0.2,0.1 -0.2,0.2c0,0.3 0,0.3 0,0.3c0,0.1 0,0.1 0,0" fill="#FFFFFF"/>
     <path id="svg_8" d="m38.8,-71.7c0,0.1 0,0.1 0,0.2c-0.1,0.1 -0.1,0.1 -0.2,0.1c-0.1,0.1 -0.1,0.3 -0.1,0.4c-0.2,0.1 0,0.2 0,0.3c0,0 0,0.1 0,0.2c0,0.1 0,0.3 0.1,0.4c0.1,0.2 0.3,0.4 0.4,0.5c0.2,0.1 0.4,0.6 0.6,0.6c0.2,0 0.4,-0.1 0.5,-0.1c0.2,0 0.4,0 0.6,-0.1c0.2,-0.1 0.1,-0.3 0.3,-0.5c0.1,-0.1 0.3,0 0.4,-0.1c0.2,-0.1 0.3,-0.3 0.4,-0.5c0,-0.1 0,-0.1 0,-0.2c0,-0.1 0.1,-0.2 0.1,-0.3c0,-0.1 -0.1,-0.1 -0.1,-0.2c0,-0.1 0,-0.2 0,-0.3c0,-0.2 0,-0.4 -0.1,-0.5c-0.4,-0.7 -1.2,-0.9 -2,-0.8c-0.2,0 -0.3,0.1 -0.4,0.2c-0.2,0.1 -0.1,0.2 -0.3,0.2c-0.1,0 -0.2,0.1 -0.2,0.2c0,0.3 0,0.3 0,0.3c0,0.1 0,0.1 0,0" fill="#FFFFFF"/>
     <path id="svg_9" d="m31.1,-71.7c0,0.1 0,0.1 0,0.2c-0.1,0.1 -0.1,0.1 -0.2,0.1c-0.1,0.1 -0.1,0.3 -0.1,0.4c-0.2,0.1 0,0.2 0,0.3c0,0 0,0.1 0,0.2c0,0.1 0,0.3 0.1,0.4c0.1,0.2 0.3,0.4 0.4,0.5c0.2,0.1 0.4,0.6 0.6,0.6c0.2,0 0.4,-0.1 0.5,-0.1c0.2,0 0.4,0 0.6,-0.1c0.2,-0.1 0.1,-0.3 0.3,-0.5c0.1,-0.1 0.3,0 0.4,-0.1c0.2,-0.1 0.3,-0.3 0.4,-0.5c0,-0.1 0,-0.1 0,-0.2c0,-0.1 0.1,-0.2 0.1,-0.3c0,-0.1 -0.1,-0.1 -0.1,-0.2c0,-0.1 0,-0.2 0,-0.3c0,-0.2 0,-0.4 -0.1,-0.5c-0.4,-0.7 -1.2,-0.9 -2,-0.8c-0.2,0 -0.3,0.1 -0.4,0.2c-0.2,0.1 -0.1,0.2 -0.3,0.2c-0.1,0 -0.2,0.1 -0.2,0.2c0,0.3 0,0.3 0,0.3c0,0.1 0,0.1 0,0" fill="#FFFFFF"/>
     <path id="svg_10" d="m23.4,-71.7c0,0.1 0,0.1 0,0.2c-0.1,0.1 -0.1,0.1 -0.2,0.1c-0.1,0.1 -0.1,0.3 -0.1,0.4c-0.2,0.1 0,0.2 0,0.3c0,0 0,0.1 0,0.2c0,0.1 0,0.3 0.1,0.4c0.1,0.2 0.3,0.4 0.4,0.5c0.2,0.1 0.4,0.6 0.6,0.6c0.2,0 0.4,-0.1 0.5,-0.1c0.2,0 0.4,0 0.6,-0.1c0.2,-0.1 0.1,-0.3 0.3,-0.5c0.1,-0.1 0.3,0 0.4,-0.1c0.2,-0.1 0.3,-0.3 0.4,-0.5c0,-0.1 0,-0.1 0,-0.2c0,-0.1 0.1,-0.2 0.1,-0.3c0,-0.1 -0.1,-0.1 -0.1,-0.2c0,-0.1 0,-0.2 0,-0.3c0,-0.2 0,-0.4 -0.1,-0.5c-0.4,-0.7 -1.2,-0.9 -2,-0.8c-0.2,0 -0.3,0.1 -0.4,0.2c-0.2,0.1 -0.1,0.2 -0.3,0.2c-0.1,0 -0.2,0.1 -0.2,0.2c0,0.3 0,0.3 0,0.3c0,0.1 0,0.1 0,0" fill="#FFFFFF"/>
     <path id="svg_11" d="m15.8,-71.7c0,0.1 0,0.1 0,0.2c-0.1,0.1 -0.1,0.1 -0.2,0.1c-0.1,0.1 -0.1,0.3 -0.1,0.4c-0.2,0.1 0,0.2 0,0.3c0,0 0,0.1 0,0.2c0,0.1 0,0.3 0.1,0.4c0.1,0.2 0.3,0.4 0.4,0.5c0.2,0.1 0.4,0.6 0.6,0.6c0.2,0 0.4,-0.1 0.5,-0.1c0.2,0 0.4,0 0.6,-0.1c0.2,-0.1 0.1,-0.3 0.3,-0.5c0.1,-0.1 0.3,0 0.4,-0.1c0.2,-0.1 0.3,-0.3 0.4,-0.5c0,-0.1 0,-0.1 0,-0.2c0,-0.1 0.1,-0.2 0.1,-0.3c0,-0.1 -0.1,-0.1 -0.1,-0.2c0,-0.1 0,-0.2 0,-0.3c0,-0.2 0,-0.4 -0.1,-0.5c-0.4,-0.7 -1.2,-0.9 -2,-0.8c-0.2,0 -0.3,0.1 -0.4,0.2c-0.2,0.1 -0.1,0.2 -0.3,0.2c-0.1,0 -0.2,0.1 -0.2,0.2c0,0.3 0,0.3 0,0.3c0,0.1 0,0.1 0,0" fill="#FFFFFF"/>
     <path id="svg_12" d="m8.1,-71.7c0,0.1 0,0.1 0,0.2c-0.1,0.1 -0.1,0.1 -0.2,0.2c-0.1,0.1 -0.1,0.3 -0.1,0.4c-0.2,0.1 0,0.2 0,0.3c0,0 0,0.1 0,0.2c0,0.1 0,0.3 0.1,0.4c0.1,0.2 0.3,0.4 0.4,0.5c0.2,0.1 0.4,0.6 0.6,0.6c0.2,0 0.4,-0.1 0.5,-0.1c0.2,0 0.4,0 0.6,-0.1c0.2,-0.1 0.1,-0.3 0.3,-0.5c0.1,-0.1 0.3,0 0.4,-0.1c0.2,-0.1 0.3,-0.3 0.4,-0.5c0,-0.1 0,-0.1 0,-0.2c0,-0.1 0.1,-0.2 0.1,-0.3c0,-0.1 -0.1,-0.1 -0.1,-0.2c0,-0.1 0,-0.2 0,-0.3c0,-0.2 0,-0.4 -0.1,-0.5c-0.4,-0.7 -1.2,-0.9 -2,-0.8c-0.2,0 -0.3,0.1 -0.4,0.2c-0.2,0.1 -0.1,0.2 -0.3,0.2c-0.1,0 -0.2,0.1 -0.2,0.2c0,0.2 0,0.2 0,0.2c0,0.1 0,0.1 0,0" fill="#FFFFFF"/>
     <path id="svg_13" d="m0.4,-71.7c0,0.1 0,0.1 0,0.2c-0.1,0.1 -0.1,0.1 -0.2,0.1c-0.1,0.1 -0.1,0.3 -0.1,0.4c-0.2,0.1 0,0.2 0,0.3c0,0 0,0.1 0,0.2c0,0.1 0,0.3 0.1,0.4c0.1,0.2 0.3,0.4 0.4,0.5c0.2,0.2 0.4,0.6 0.6,0.7c0.2,0 0.4,-0.1 0.5,-0.1c0.2,0 0.4,0 0.6,-0.1c0.2,-0.1 0.1,-0.3 0.3,-0.5c0.1,-0.1 0.3,0 0.4,-0.1c0.2,-0.1 0.3,-0.3 0.4,-0.5c0,-0.1 0,-0.1 0,-0.2c0,-0.1 0.1,-0.2 0.1,-0.3c0,-0.1 -0.1,-0.1 -0.1,-0.2c0,-0.1 0,-0.2 0,-0.3c0,-0.2 0,-0.4 -0.1,-0.5c-0.4,-0.7 -1.2,-0.9 -2,-0.8c-0.2,0 -0.3,0.1 -0.4,0.2c-0.2,0.1 -0.1,0.2 -0.3,0.2c-0.1,0 -0.2,0.1 -0.2,0.2c0,0.2 0,0.2 0,0.2c0,0.1 0,0.1 0,0" fill="#FFFFFF"/>
    </g>
    <g id="svg_14">
     <path id="svg_15" d="m69.4,-71.7c0,0.1 0,0.1 0,0.2c-0.1,0.1 -0.1,0.1 -0.2,0.1c-0.1,0.1 -0.1,0.3 -0.1,0.4c-0.2,0.1 0,0.2 0,0.3c0,0 0,0.1 0,0.2c0,0.1 0,0.3 0.1,0.4c0.1,0.2 0.3,0.4 0.4,0.5c0.2,0.1 0.4,0.6 0.6,0.6c0.2,0 0.4,-0.1 0.5,-0.1c0.2,0 0.4,0 0.6,-0.1c0.2,-0.1 0.1,-0.3 0.3,-0.5c0.1,-0.1 0.3,0 0.4,-0.1c0.2,-0.1 0.3,-0.3 0.4,-0.5c0,-0.1 0,-0.1 0,-0.2c0,-0.1 0.1,-0.2 0.1,-0.3c0,-0.1 -0.1,-0.1 -0.1,-0.2c0,-0.1 0,-0.2 0,-0.3c0,-0.2 0,-0.4 -0.1,-0.5c-0.4,-0.7 -1.2,-0.9 -2,-0.8c-0.2,0 -0.3,0.1 -0.4,0.2c-0.2,0.1 -0.1,0.2 -0.3,0.2c-0.1,0 -0.2,0.1 -0.2,0.2c0,0.3 0,0.3 0,0.3c0,0.1 0,0.1 0,0" fill="#FFFFFF"/>
    </g>
    <path id="svg_16" d="m0.5,-71.7c0,0.1 0,0.1 0,0.2c-0.1,0.1 -0.1,0.1 -0.2,0.1c-0.1,0.1 -0.1,0.3 -0.1,0.4c-0.2,0.1 0,0.2 0,0.3c0,0 0,0.1 0,0.2c0,0.1 0,0.3 0.1,0.4c0.1,0.2 0.3,0.4 0.4,0.5c0.2,0.2 0.3,0.6 0.6,0.7c0.2,0 0.4,-0.1 0.5,-0.1c0.2,0 0.4,0 0.6,-0.1c0.2,-0.1 0.1,-0.3 0.3,-0.5c0.1,-0.1 0.3,0 0.4,-0.1c0.2,-0.1 0.3,-0.3 0.4,-0.5c0,-0.1 0,-0.1 0,-0.2c0,-0.1 0.1,-0.2 0.1,-0.3c0,-0.1 -0.1,-0.1 -0.1,-0.2c0,-0.1 0,-0.2 0,-0.3c0,-0.2 0,-0.4 -0.1,-0.5c-0.4,-0.7 -1.2,-0.9 -2,-0.8c-0.2,0 -0.3,0.1 -0.4,0.2c-0.2,0.1 -0.1,0.2 -0.3,0.2c-0.1,0 -0.2,0.1 -0.2,0.2c0,0.2 0,0.2 0,0.2c0,0.1 0,0.1 0,0" fill="#FFFFFF"/>
    <g id="svg_17">
     <g id="svg_18">
      <path id="svg_19" d="m69.4,-64c0,0.1 0,0.1 0,0.2c-0.1,0.1 -0.1,0.1 -0.2,0.1c-0.1,0.1 -0.1,0.3 -0.1,0.4c-0.2,0.1 0,0.2 0,0.3c0,0 0,0.1 0,0.2c0,0.1 0,0.3 0.1,0.4c0.1,0.2 0.3,0.4 0.4,0.5c0.2,0.1 0.4,0.6 0.6,0.6c0.2,0 0.4,-0.1 0.5,-0.1c0.2,0 0.4,0 0.6,-0.1c0.2,-0.1 0.1,-0.3 0.3,-0.5c0.1,-0.1 0.3,0 0.4,-0.1c0.2,-0.1 0.3,-0.3 0.4,-0.5c0,-0.1 0,-0.1 0,-0.2c0,-0.1 0.1,-0.2 0.1,-0.3c0,-0.1 -0.1,-0.1 -0.1,-0.2c0,-0.1 0,-0.2 0,-0.3c0,-0.2 0,-0.4 -0.1,-0.5c-0.4,-0.7 -1.2,-0.9 -2,-0.8c-0.2,0 -0.3,0.1 -0.4,0.2c-0.2,0.1 -0.1,0.2 -0.3,0.2c-0.1,0 -0.2,0.1 -0.2,0.2c0,0.3 0,0.2 0,0.3c0,0 0,0 0,0" fill="#FFFFFF"/>
      <path id="svg_20" d="m61.8,-64c0,0.1 0,0.1 0,0.2c-0.1,0.1 -0.1,0.1 -0.2,0.1c-0.1,0.1 -0.1,0.3 -0.1,0.4c-0.2,0.1 0,0.2 0,0.3c0,0 0,0.1 0,0.2c0,0.1 0,0.3 0.1,0.4c0.1,0.2 0.3,0.4 0.4,0.5c0.2,0.1 0.4,0.6 0.6,0.6c0.2,0 0.4,-0.1 0.5,-0.1c0.2,0 0.4,0 0.6,-0.1c0.2,-0.1 0.1,-0.3 0.3,-0.5c0.1,-0.1 0.3,0 0.4,-0.1c0.2,-0.1 0.3,-0.3 0.4,-0.5c0,-0.1 0,-0.1 0,-0.2c0,-0.1 0.1,-0.2 0.1,-0.3c0,-0.1 -0.1,-0.1 -0.1,-0.2c0,-0.1 0,-0.2 0,-0.3c0,-0.2 0,-0.4 -0.1,-0.5c-0.4,-0.7 -1.2,-0.9 -2,-0.8c-0.2,0 -0.3,0.1 -0.4,0.2c-0.2,0.1 -0.1,0.2 -0.3,0.2c-0.1,0 -0.2,0.1 -0.2,0.2c0,0.3 0,0.2 0,0.3c0,0 0,0 0,0" fill="#FFFFFF"/>
      <path id="svg_21" d="m54.1,-64c0,0.1 0,0.1 0,0.2c-0.1,0.1 -0.1,0.1 -0.2,0.1c-0.1,0.1 -0.1,0.3 -0.1,0.4c-0.2,0.1 0,0.2 0,0.3c0,0 0,0.1 0,0.2c0,0.1 0,0.3 0.1,0.4c0.1,0.2 0.3,0.4 0.4,0.5c0.2,0.1 0.4,0.6 0.6,0.6c0.2,0 0.4,-0.1 0.5,-0.1c0.2,0 0.4,0 0.6,-0.1c0.2,-0.1 0.1,-0.3 0.3,-0.5c0.1,-0.1 0.3,0 0.4,-0.1c0.2,-0.1 0.3,-0.3 0.4,-0.5c0,-0.1 0,-0.1 0,-0.2c0,-0.1 0.1,-0.2 0.1,-0.3c0,-0.1 -0.1,-0.1 -0.1,-0.2c0,-0.1 0,-0.2 0,-0.3c0,-0.2 0,-0.4 -0.1,-0.5c-0.4,-0.7 -1.2,-0.9 -2,-0.8c-0.2,0 -0.3,0.1 -0.4,0.2c-0.2,0.1 -0.1,0.2 -0.3,0.2c-0.1,0 -0.2,0.1 -0.2,0.2c0,0.3 0,0.2 0,0.3c0,0 0,0 0,0" fill="#FFFFFF"/>
      <path id="svg_22" d="m46.5,-64c0,0.1 0,0.1 0,0.2c-0.1,0.1 -0.1,0.1 -0.2,0.1c-0.1,0.1 -0.1,0.3 -0.1,0.4c-0.2,0.1 0,0.2 0,0.3c0,0 0,0.1 0,0.2c0,0.1 0,0.3 0.1,0.4c0.1,0.2 0.3,0.4 0.4,0.5c0.2,0.1 0.4,0.6 0.6,0.6c0.2,0 0.4,-0.1 0.5,-0.1c0.2,0 0.4,0 0.6,-0.1c0.2,-0.1 0.1,-0.3 0.3,-0.5c0.1,-0.1 0.3,0 0.4,-0.1c0.2,-0.1 0.3,-0.3 0.4,-0.5c0,-0.1 0,-0.1 0,-0.2c0,-0.1 0.1,-0.2 0.1,-0.3c0,-0.1 -0.1,-0.1 -0.1,-0.2c0,-0.1 0,-0.2 0,-0.3c0,-0.2 0,-0.4 -0.1,-0.5c-0.4,-0.7 -1.2,-0.9 -2,-0.8c-0.2,0 -0.3,0.1 -0.4,0.2c-0.2,0.1 -0.1,0.2 -0.3,0.2c-0.1,0 -0.2,0.1 -0.2,0.2c0,0.3 0,0.2 0,0.3c0,0 0,0 0,0" fill="#FFFFFF"/>
      <path id="svg_23" d="m38.8,-64c0,0.1 0,0.1 0,0.2c-0.1,0.1 -0.1,0.1 -0.2,0.1c-0.1,0.1 -0.1,0.3 -0.1,0.4c-0.2,0.1 0,0.2 0,0.3c0,0 0,0.1 0,0.2c0,0.1 0,0.3 0.1,0.4c0.1,0.2 0.3,0.4 0.4,0.5c0.2,0.1 0.4,0.6 0.6,0.6c0.2,0 0.4,-0.1 0.5,-0.1c0.2,0 0.4,0 0.6,-0.1c0.2,-0.1 0.1,-0.3 0.3,-0.5c0.1,-0.1 0.3,0 0.4,-0.1c0.2,-0.1 0.3,-0.3 0.4,-0.5c0,-0.1 0,-0.1 0,-0.2c0,-0.1 0.1,-0.2 0.1,-0.3c0,-0.1 -0.1,-0.1 -0.1,-0.2c0,-0.1 0,-0.2 0,-0.3c0,-0.2 0,-0.4 -0.1,-0.5c-0.4,-0.7 -1.2,-0.9 -2,-0.8c-0.2,0 -0.3,0.1 -0.4,0.2c-0.2,0.1 -0.1,0.2 -0.3,0.2c-0.1,0 -0.2,0.1 -0.2,0.2c0,0.3 0,0.2 0,0.3c0,0 0,0 0,0" fill="#FFFFFF"/>
      <path id="svg_24" d="m31.1,-64c0,0.1 0,0.1 0,0.2c-0.1,0.1 -0.1,0.1 -0.2,0.1c-0.1,0.1 -0.1,0.3 -0.1,0.4c-0.2,0.1 0,0.2 0,0.3c0,0 0,0.1 0,0.2c0,0.1 0,0.3 0.1,0.4c0.1,0.2 0.3,0.4 0.4,0.5c0.2,0.1 0.4,0.6 0.6,0.6c0.2,0 0.4,-0.1 0.5,-0.1c0.2,0 0.4,0 0.6,-0.1c0.2,-0.1 0.1,-0.3 0.3,-0.5c0.1,-0.1 0.3,0 0.4,-0.1c0.2,-0.1 0.3,-0.3 0.4,-0.5c0,-0.1 0,-0.1 0,-0.2c0,-0.1 0.1,-0.2 0.1,-0.3c0,-0.1 -0.1,-0.1 -0.1,-0.2c0,-0.1 0,-0.2 0,-0.3c0,-0.2 0,-0.4 -0.1,-0.5c-0.4,-0.7 -1.2,-0.9 -2,-0.8c-0.2,0 -0.3,0.1 -0.4,0.2c-0.2,0.1 -0.1,0.2 -0.3,0.2c-0.1,0 -0.2,0.1 -0.2,0.2c0,0.3 0,0.2 0,0.3c0,0 0,0 0,0" fill="#FFFFFF"/>
      <path id="svg_25" d="m23.5,-64c0,0.1 0,0.1 0,0.2c-0.1,0.1 -0.1,0.1 -0.2,0.1c-0.1,0.1 -0.1,0.3 -0.1,0.4c-0.2,0.1 0,0.2 0,0.3c0,0 0,0.1 0,0.2c0,0.1 0,0.3 0.1,0.4c0.1,0.2 0.3,0.4 0.4,0.5c0.2,0.1 0.4,0.6 0.6,0.6c0.2,0 0.4,-0.1 0.5,-0.1c0.2,0 0.4,0 0.6,-0.1c0.2,-0.1 0.1,-0.3 0.3,-0.5c0.1,-0.1 0.3,0 0.4,-0.1c0.2,-0.1 0.3,-0.3 0.4,-0.5c0,-0.1 0,-0.1 0,-0.2c0,-0.1 0.1,-0.2 0.1,-0.3c0,-0.1 -0.1,-0.1 -0.1,-0.2c0,-0.1 0,-0.2 0,-0.3c0,-0.2 0,-0.4 -0.1,-0.5c-0.4,-0.7 -1.2,-0.9 -2,-0.8c-0.2,0 -0.3,0.1 -0.4,0.2c-0.2,0.1 -0.1,0.2 -0.3,0.2c-0.1,0 -0.2,0.1 -0.2,0.2c0,0.3 0,0.2 0,0.3c0,0 0,0 0,0" fill="#FFFFFF"/>
      <path id="svg_26" d="m15.8,-64c0,0.1 0,0.1 0,0.2c-0.1,0.1 -0.1,0.1 -0.2,0.1c-0.1,0.1 -0.1,0.3 -0.1,0.4c-0.2,0.1 0,0.2 0,0.3c0,0 0,0.1 0,0.2c0,0.1 0,0.3 0.1,0.4c0.1,0.2 0.3,0.4 0.4,0.5c0.2,0.1 0.4,0.6 0.6,0.6c0.2,0 0.4,-0.1 0.5,-0.1c0.2,0 0.4,0 0.6,-0.1c0.2,-0.1 0.1,-0.3 0.3,-0.5c0.1,-0.1 0.3,0 0.4,-0.1c0.2,-0.1 0.3,-0.3 0.4,-0.5c0,-0.1 0,-0.1 0,-0.2c0,-0.1 0.1,-0.2 0.1,-0.3c0,-0.1 -0.1,-0.1 -0.1,-0.2c0,-0.1 0,-0.2 0,-0.3c0,-0.2 0,-0.4 -0.1,-0.5c-0.4,-0.7 -1.2,-0.9 -2,-0.8c-0.2,0 -0.3,0.1 -0.4,0.2c-0.2,0.1 -0.1,0.2 -0.3,0.2c-0.1,0 -0.2,0.1 -0.2,0.2c0,0.3 0,0.2 0,0.3c0,0 0,0 0,0" fill="#FFFFFF"/>
      <path id="svg_27" d="m8.2,-64c0,0.1 0,0.1 0,0.2c-0.1,0.1 -0.2,0.1 -0.2,0.1c-0.1,0.1 -0.1,0.3 -0.1,0.4c-0.2,0.1 0,0.2 0,0.3c0,0 0,0.1 0,0.2c0,0.1 0,0.3 0.1,0.4c0,0.2 0.2,0.4 0.3,0.5c0.2,0.1 0.4,0.6 0.6,0.6c0.2,0 0.4,-0.1 0.5,-0.1c0.2,0 0.4,0 0.6,-0.1c0.2,-0.1 0.1,-0.3 0.3,-0.5c0.1,-0.1 0.3,0 0.4,-0.1c0.2,-0.1 0.3,-0.3 0.4,-0.5c0,-0.1 0,-0.1 0,-0.2c0,-0.1 0.1,-0.2 0.1,-0.3c0,-0.1 -0.1,-0.1 -0.1,-0.2c0,-0.1 0,-0.2 0,-0.3c0,-0.2 0,-0.4 -0.1,-0.5c-0.4,-0.7 -1.2,-0.9 -2,-0.8c-0.2,0 -0.3,0.1 -0.4,0.2c-0.2,0.1 -0.1,0.2 -0.3,0.2c-0.1,0 -0.2,0.1 -0.2,0.2c0.1,0.3 0.1,0.2 0.1,0.3c-0.1,0 -0.1,0 0,0" fill="#FFFFFF"/>
      <path id="svg_28" d="m0.5,-64c0,0.1 0,0.1 0,0.2c-0.1,0.1 -0.1,0.1 -0.2,0.1c-0.1,0.1 -0.1,0.3 -0.1,0.4c-0.2,0.1 0,0.2 0,0.3c0,0 0,0.1 0,0.2c0,0.1 0,0.3 0.1,0.4c0.1,0.2 0.3,0.4 0.4,0.5c0.2,0.1 0.4,0.6 0.6,0.6c0.2,0 0.4,-0.1 0.5,-0.1c0.2,0 0.4,0 0.6,-0.1c0.2,-0.1 0.1,-0.3 0.3,-0.5c0.1,0 0.3,0.1 0.4,0c0.2,-0.1 0.3,-0.3 0.4,-0.5c0,-0.1 0,-0.1 0,-0.2c0,-0.1 0.1,-0.2 0.1,-0.3c0,-0.1 -0.1,-0.1 -0.1,-0.2c0,-0.1 0,-0.2 0,-0.3c0,-0.2 0,-0.4 -0.1,-0.5c-0.4,-0.7 -1.2,-0.9 -2,-0.8c-0.2,0 -0.3,0.1 -0.4,0.2c-0.2,0.1 -0.1,0.2 -0.3,0.2c-0.1,0 -0.2,0.1 -0.2,0.2c0,0.2 0,0.1 0,0.2c0,0 0,0 0,0" fill="#FFFFFF"/>
     </g>
     <g id="svg_29">
      <path id="svg_30" d="m69.4,-56.3c0,0.1 0,0.1 0,0.2c-0.1,0.1 -0.1,0.1 -0.2,0.1c-0.1,0.1 -0.1,0.3 -0.1,0.4c-0.2,0.1 0,0.2 0,0.3c0,0 0,0.1 0,0.2c0,0.1 0,0.3 0.1,0.4c0.1,0.2 0.3,0.4 0.4,0.5c0.2,0.1 0.4,0.6 0.6,0.6c0.2,0 0.4,-0.1 0.5,-0.1c0.2,0 0.4,0 0.6,-0.1c0.2,-0.1 0.1,-0.3 0.3,-0.5c0.1,-0.1 0.3,0 0.4,-0.1c0.2,-0.1 0.3,-0.3 0.4,-0.5c0,-0.1 0,-0.1 0,-0.2c0,-0.1 0.1,-0.2 0.1,-0.3c0,-0.1 -0.1,-0.1 -0.1,-0.2c0,-0.1 0,-0.2 0,-0.3c0,-0.2 0,-0.4 -0.1,-0.5c-0.4,-0.7 -1.2,-0.9 -2,-0.8c-0.2,0 -0.3,0.1 -0.4,0.2c-0.2,0.1 -0.1,0.2 -0.3,0.2c-0.1,0 -0.2,0.1 -0.2,0.2c0,0.2 0,0.2 0,0.3c0,0 0,0 0,0" fill="#FFFFFF"/>
      <path id="svg_31" d="m61.8,-56.3c0,0.1 0,0.1 0,0.2c-0.1,0.1 -0.1,0.1 -0.2,0.1c-0.1,0.1 -0.1,0.3 -0.1,0.4c-0.2,0.1 0,0.2 0,0.3c0,0 0,0.1 0,0.2c0,0.1 0,0.3 0.1,0.4c0.1,0.2 0.3,0.4 0.4,0.5c0.2,0.1 0.4,0.6 0.6,0.6c0.2,0 0.4,-0.1 0.5,-0.1c0.2,0 0.4,0 0.6,-0.1c0.2,-0.1 0.1,-0.3 0.3,-0.5c0.1,-0.1 0.3,0 0.4,-0.1c0.2,-0.1 0.3,-0.3 0.4,-0.5c0,-0.1 0,-0.1 0,-0.2c0,-0.1 0.1,-0.2 0.1,-0.3c0,-0.1 -0.1,-0.1 -0.1,-0.2c0,-0.1 0,-0.2 0,-0.3c0,-0.2 0,-0.4 -0.1,-0.5c-0.4,-0.7 -1.2,-0.9 -2,-0.8c-0.2,0 -0.3,0.1 -0.4,0.2c-0.2,0.1 -0.1,0.2 -0.3,0.2c-0.1,0 -0.2,0.1 -0.2,0.2c0,0.2 0,0.2 0,0.3c0,0 0,0 0,0" fill="#FFFFFF"/>
      <path id="svg_32" d="m54.1,-56.3c0,0.1 0,0.1 0,0.2c-0.1,0 -0.1,0 -0.2,0.1c-0.1,0.1 -0.1,0.3 -0.1,0.4c-0.2,0.1 0,0.2 0,0.3c0,0 0,0.1 0,0.2c0,0.1 0,0.3 0.1,0.4c0.1,0.2 0.3,0.4 0.4,0.5c0.2,0.1 0.4,0.6 0.6,0.6c0.2,0 0.4,-0.1 0.5,-0.1c0.2,0 0.4,0 0.6,-0.1c0.2,-0.1 0.1,-0.3 0.3,-0.5c0.1,-0.1 0.3,0 0.4,-0.1c0.2,-0.1 0.3,-0.3 0.4,-0.5c0,-0.1 0,-0.1 0,-0.2c0,-0.1 0.1,-0.2 0.1,-0.3c0,-0.1 -0.1,-0.1 -0.1,-0.2c0,-0.1 0,-0.2 0,-0.3c0,-0.2 0,-0.4 -0.1,-0.5c-0.4,-0.7 -1.2,-0.9 -2,-0.8c-0.2,0 -0.3,0.1 -0.4,0.2c-0.2,0.1 -0.1,0.2 -0.3,0.2c-0.1,0 -0.2,0.1 -0.2,0.2c0,0.2 0,0.2 0,0.3c0,0 0,0 0,0" fill="#FFFFFF"/>
      <path id="svg_33" d="m46.5,-56.3c0,0.1 0,0.1 0,0.2c-0.1,0.1 -0.1,0.1 -0.2,0.1c-0.1,0.1 -0.1,0.3 -0.1,0.4c-0.2,0.1 0,0.2 0,0.3c0,0 0,0.1 0,0.2c0,0.1 0,0.3 0.1,0.4c0.1,0.2 0.3,0.4 0.4,0.5c0.2,0.1 0.4,0.6 0.6,0.6c0.2,0 0.4,-0.1 0.5,-0.1c0.2,0 0.4,0 0.6,-0.1c0.2,-0.1 0.1,-0.3 0.3,-0.5c0.1,-0.1 0.3,0 0.4,-0.1c0.2,-0.1 0.3,-0.3 0.4,-0.5c0,-0.1 0,-0.1 0,-0.2c0,-0.1 0.1,-0.2 0.1,-0.3c0,-0.1 -0.1,-0.1 -0.1,-0.2c0,-0.1 0,-0.2 0,-0.3c0,-0.2 0,-0.4 -0.1,-0.5c-0.4,-0.7 -1.2,-0.9 -2,-0.8c-0.2,0 -0.3,0.1 -0.4,0.2c-0.2,0.1 -0.1,0.2 -0.3,0.2c-0.1,0 -0.2,0.1 -0.2,0.2c0,0.2 0,0.2 0,0.3c0,0 0,0 0,0" fill="#FFFFFF"/>
      <path id="svg_34" d="m38.8,-56.3c0,0.1 0,0.1 0,0.2c-0.1,0.1 -0.1,0.1 -0.2,0.1c-0.1,0.1 -0.1,0.3 -0.1,0.4c-0.2,0.1 0,0.2 0,0.3c0,0 0,0.1 0,0.2c0,0.1 0,0.3 0.1,0.4c0.1,0.2 0.3,0.4 0.4,0.5c0.2,0.1 0.4,0.6 0.6,0.6c0.2,0 0.4,-0.1 0.5,-0.1c0.2,0 0.4,0 0.6,-0.1c0.2,-0.1 0.1,-0.3 0.3,-0.5c0.1,-0.1 0.3,0 0.4,-0.1c0.2,-0.1 0.3,-0.3 0.4,-0.5c0,-0.1 0,-0.1 0,-0.2c0,-0.1 0.1,-0.2 0.1,-0.3c0,-0.1 -0.1,-0.1 -0.1,-0.2c0,-0.1 0,-0.2 0,-0.3c0,-0.2 0,-0.4 -0.1,-0.5c-0.4,-0.7 -1.2,-0.9 -2,-0.8c-0.2,0 -0.3,0.1 -0.4,0.2c-0.2,0.1 -0.1,0.2 -0.3,0.2c-0.1,0 -0.2,0.1 -0.2,0.2c0,0.2 0,0.2 0,0.3c0,0 0,0 0,0" fill="#FFFFFF"/>
      <path id="svg_35" d="m31.1,-56.3c0,0.1 0,0.1 0,0.2c-0.1,0.1 -0.1,0.1 -0.2,0.1c-0.1,0.1 -0.1,0.3 -0.1,0.4c-0.2,0.1 0,0.2 0,0.3c0,0 0,0.1 0,0.2c0,0.1 0,0.3 0.1,0.4c0.1,0.2 0.3,0.4 0.4,0.5c0.2,0.1 0.4,0.6 0.6,0.6c0.2,0 0.4,-0.1 0.5,-0.1c0.2,0 0.4,0 0.6,-0.1c0.2,-0.1 0.1,-0.3 0.3,-0.5c0.1,-0.1 0.3,0 0.4,-0.1c0.2,-0.1 0.3,-0.3 0.4,-0.5c0,-0.1 0,-0.1 0,-0.2c0,-0.1 0.1,-0.2 0.1,-0.3c0,-0.1 -0.1,-0.1 -0.1,-0.2c0,-0.1 0,-0.2 0,-0.3c0,-0.2 0,-0.4 -0.1,-0.5c-0.4,-0.7 -1.2,-0.9 -2,-0.8c-0.2,0 -0.3,0.1 -0.4,0.2c-0.2,0.1 -0.1,0.2 -0.3,0.2c-0.1,0 -0.2,0.1 -0.2,0.2c0,0.2 0,0.2 0,0.3c0,0 0,0 0,0" fill="#FFFFFF"/>
      <path id="svg_36" d="m23.5,-56.3c0,0.1 0,0.1 0,0.2c-0.1,0.1 -0.1,0.1 -0.2,0.1c-0.1,0.1 -0.1,0.3 -0.1,0.4c-0.2,0.1 0,0.2 0,0.3c0,0 0,0.1 0,0.2c0,0.1 0,0.3 0.1,0.4c0.1,0.2 0.3,0.4 0.4,0.5c0.2,0.1 0.4,0.6 0.6,0.6c0.2,0 0.4,-0.1 0.5,-0.1c0.2,0 0.4,0 0.6,-0.1c0.2,-0.1 0.1,-0.3 0.3,-0.5c0.1,-0.1 0.3,0 0.4,-0.1c0.2,-0.1 0.3,-0.3 0.4,-0.5c0,-0.1 0,-0.1 0,-0.2c0,-0.1 0.1,-0.2 0.1,-0.3c0,-0.1 -0.1,-0.1 -0.1,-0.2c0,-0.1 0,-0.2 0,-0.3c0,-0.2 0,-0.4 -0.1,-0.5c-0.4,-0.7 -1.2,-0.9 -2,-0.8c-0.2,0 -0.3,0.1 -0.4,0.2c-0.2,0.1 -0.1,0.2 -0.3,0.2c-0.1,0 -0.2,0.1 -0.2,0.2c0,0.2 0,0.2 0,0.3c0,0 0,0 0,0" fill="#FFFFFF"/>
      <path id="svg_37" d="m15.8,-56.3c0,0.1 0,0.1 0,0.2c-0.1,0.1 -0.1,0.1 -0.2,0.1c-0.1,0.1 -0.1,0.3 -0.1,0.4c-0.2,0.1 0,0.2 0,0.3c0,0 0,0.1 0,0.2c0,0.1 0,0.3 0.1,0.4c0.1,0.2 0.3,0.4 0.4,0.5c0.2,0.1 0.4,0.6 0.6,0.6c0.2,0 0.4,-0.1 0.5,-0.1c0.2,0 0.4,0 0.6,-0.1c0.2,-0.1 0.1,-0.3 0.3,-0.5c0.1,-0.1 0.3,0 0.4,-0.1c0.2,-0.1 0.3,-0.3 0.4,-0.5c0,-0.1 0,-0.1 0,-0.2c0,-0.1 0.1,-0.2 0.1,-0.3c0,-0.1 -0.1,-0.1 -0.1,-0.2c0,-0.1 0,-0.2 0,-0.3c0,-0.2 0,-0.4 -0.1,-0.5c-0.4,-0.7 -1.2,-0.9 -2,-0.8c-0.2,0 -0.3,0.1 -0.4,0.2c-0.2,0.1 -0.1,0.2 -0.3,0.2c-0.1,0 -0.2,0.1 -0.2,0.2c0,0.2 0,0.2 0,0.3c0,0 0,0 0,0" fill="#FFFFFF"/>
      <path id="svg_38" d="m8.2,-56.3c0,0.1 0,0.1 0,0.2c-0.1,0 -0.2,0 -0.2,0.1c-0.1,0.1 -0.1,0.3 -0.1,0.4c-0.2,0.1 0,0.2 0,0.3c0,0 0,0.1 0,0.2c0,0.1 0,0.3 0.1,0.4c0.1,0.2 0.3,0.4 0.4,0.5c0.2,0.1 0.4,0.6 0.6,0.6c0.2,0 0.4,-0.1 0.5,-0.1c0.2,0 0.4,0 0.6,-0.1c0.2,-0.1 0.1,-0.3 0.3,-0.5c0.1,-0.1 0.3,0 0.4,-0.1c0.2,-0.1 0.3,-0.3 0.4,-0.5c0,-0.1 0,-0.1 0,-0.2c0,-0.1 0.1,-0.2 0.1,-0.3c0,-0.1 -0.1,-0.1 -0.1,-0.2c0,-0.1 0,-0.2 0,-0.3c0,-0.2 0,-0.4 -0.1,-0.5c-0.4,-0.7 -1.2,-0.9 -2,-0.8c-0.2,0 -0.3,0.1 -0.4,0.2c-0.2,0.1 -0.1,0.2 -0.3,0.2c-0.1,0 -0.2,0.1 -0.2,0.2c0,0.2 0,0.2 0,0.3c-0.1,0 -0.1,0 0,0" fill="#FFFFFF"/>
      <path id="svg_39" d="m0.5,-56.3c0,0.1 0,0.1 0,0.2c-0.1,0.1 -0.1,0.1 -0.2,0.1c-0.1,0.1 -0.1,0.3 -0.1,0.4c-0.2,0.1 0,0.2 0,0.3c0,0 0,0.1 0,0.2c0,0.1 0,0.3 0.1,0.4c0.1,0.2 0.3,0.4 0.4,0.5c0.2,0.1 0.4,0.6 0.6,0.6c0.2,0 0.4,-0.1 0.5,-0.1c0.2,0 0.4,0 0.6,-0.1c0.2,-0.1 0.1,-0.3 0.3,-0.5c0.1,-0.1 0.3,0 0.4,-0.1c0.2,-0.1 0.3,-0.3 0.4,-0.5c0,-0.1 0,-0.1 0,-0.2c0,-0.1 0.1,-0.2 0.1,-0.3c0,-0.1 -0.1,-0.1 -0.1,-0.2c0,-0.1 0,-0.2 0,-0.3c0,-0.2 0,-0.4 -0.1,-0.5c-0.4,-0.7 -1.2,-0.9 -2,-0.8c-0.2,0 -0.3,0.1 -0.4,0.2c-0.2,0.1 -0.1,0.2 -0.3,0.2c-0.1,0 -0.2,0.1 -0.2,0.2c0,0.2 0,0.2 0,0.3c0,0 0,0 0,0" fill="#FFFFFF"/>
     </g>
     <g id="svg_40">
      <path id="svg_41" d="m69.4,-48.7c0,0.1 0,0.1 0,0.2c-0.1,0.1 -0.1,0.1 -0.2,0.1c-0.1,0.1 -0.1,0.3 -0.1,0.4c-0.2,0.1 0,0.2 0,0.3c0,0 0,0.1 0,0.2c0,0.1 0,0.3 0.1,0.4c0.1,0.2 0.3,0.4 0.4,0.5c0.2,0.1 0.4,0.6 0.6,0.6c0.2,0 0.4,-0.1 0.5,-0.1c0.2,0 0.4,0 0.6,-0.1c0.2,-0.1 0.1,-0.3 0.3,-0.5c0.1,-0.1 0.3,0 0.4,-0.1c0.2,-0.1 0.3,-0.3 0.4,-0.5c0,-0.1 0,-0.1 0,-0.2c0,-0.1 0.1,-0.2 0.1,-0.3c0,-0.1 -0.1,-0.1 -0.1,-0.2c0,-0.1 0,-0.2 0,-0.3c0,-0.2 0,-0.4 -0.1,-0.5c-0.4,-0.7 -1.2,-0.9 -2,-0.8c-0.2,0 -0.3,0.1 -0.4,0.2c-0.2,0.1 -0.1,0.2 -0.3,0.2c-0.1,0 -0.2,0.1 -0.2,0.2c0,0.3 0,0.2 0,0.3c0,0 0,0 0,0" fill="#FFFFFF"/>
      <path id="svg_42" d="m61.8,-48.7c0,0.1 0,0.1 0,0.2c-0.1,0.1 -0.1,0.1 -0.2,0.1c-0.1,0.1 -0.1,0.3 -0.1,0.4c-0.2,0.1 0,0.2 0,0.3c0,0 0,0.1 0,0.2c0,0.1 0,0.3 0.1,0.4c0.1,0.2 0.3,0.4 0.4,0.5c0.2,0.1 0.4,0.6 0.6,0.6c0.2,0 0.4,-0.1 0.5,-0.1c0.2,0 0.4,0 0.6,-0.1c0.2,-0.1 0.1,-0.3 0.3,-0.5c0.1,-0.1 0.3,0 0.4,-0.1c0.2,-0.1 0.3,-0.3 0.4,-0.5c0,-0.1 0,-0.1 0,-0.2c0,-0.1 0.1,-0.2 0.1,-0.3c0,-0.1 -0.1,-0.1 -0.1,-0.2c0,-0.1 0,-0.2 0,-0.3c0,-0.2 0,-0.4 -0.1,-0.5c-0.4,-0.7 -1.2,-0.9 -2,-0.8c-0.2,0 -0.3,0.1 -0.4,0.2c-0.2,0.1 -0.1,0.2 -0.3,0.2c-0.1,0 -0.2,0.1 -0.2,0.2c0,0.3 0,0.2 0,0.3c0,0 0,0 0,0" fill="#FFFFFF"/>
      <path id="svg_43" d="m54.1,-48.7c0,0.1 0,0.1 0,0.2c-0.1,0.1 -0.1,0.1 -0.2,0.1c-0.1,0.1 -0.1,0.3 -0.1,0.4c-0.2,0.1 0,0.2 0,0.3c0,0 0,0.1 0,0.2c0,0.1 0,0.3 0.1,0.4c0.1,0.2 0.3,0.4 0.4,0.5c0.2,0.1 0.4,0.6 0.6,0.6c0.2,0 0.4,-0.1 0.5,-0.1c0.2,0 0.4,0 0.6,-0.1c0.2,-0.1 0.1,-0.3 0.3,-0.5c0.1,-0.1 0.3,0 0.4,-0.1c0.2,-0.1 0.3,-0.3 0.4,-0.5c0,-0.1 0,-0.1 0,-0.2c0,-0.1 0.1,-0.2 0.1,-0.3c0,-0.1 -0.1,-0.1 -0.1,-0.2c0,-0.1 0,-0.2 0,-0.3c0,-0.2 0,-0.4 -0.1,-0.5c-0.4,-0.7 -1.2,-0.9 -2,-0.8c-0.2,0 -0.3,0.1 -0.4,0.2c-0.2,0.1 -0.1,0.2 -0.3,0.2c-0.1,0 -0.2,0.1 -0.2,0.2c0,0.3 0,0.2 0,0.3c0,0 0,0 0,0" fill="#FFFFFF"/>
      <path id="svg_44" d="m46.5,-48.7c0,0.1 0,0.1 0,0.2c-0.1,0.1 -0.1,0.1 -0.2,0.1c-0.1,0.1 -0.1,0.3 -0.1,0.4c-0.2,0.1 0,0.2 0,0.3c0,0 0,0.1 0,0.2c0,0.1 0,0.3 0.1,0.4c0.1,0.2 0.3,0.4 0.4,0.5c0.2,0.1 0.4,0.6 0.6,0.6c0.2,0 0.4,-0.1 0.5,-0.1c0.2,0 0.4,0 0.6,-0.1c0.2,-0.1 0.1,-0.3 0.3,-0.5c0.1,-0.1 0.3,0 0.4,-0.1c0.2,-0.1 0.3,-0.3 0.4,-0.5c0,-0.1 0,-0.1 0,-0.2c0,-0.1 0.1,-0.2 0.1,-0.3c0,-0.1 -0.1,-0.1 -0.1,-0.2c0,-0.1 0,-0.2 0,-0.3c0,-0.2 0,-0.4 -0.1,-0.5c-0.4,-0.7 -1.2,-0.9 -2,-0.8c-0.2,0 -0.3,0.1 -0.4,0.2c-0.2,0.1 -0.1,0.2 -0.3,0.2c-0.1,0 -0.2,0.1 -0.2,0.2c0,0.3 0,0.2 0,0.3c0,0 0,0 0,0" fill="#FFFFFF"/>
      <path id="svg_45" d="m38.8,-48.7c0,0.1 0,0.1 0,0.2c-0.1,0.1 -0.1,0.1 -0.2,0.1c-0.1,0.1 -0.1,0.3 -0.1,0.4c-0.2,0.1 0,0.2 0,0.3c0,0 0,0.1 0,0.2c0,0.1 0,0.3 0.1,0.4c0.1,0.2 0.3,0.4 0.4,0.5c0.2,0.1 0.4,0.6 0.6,0.6c0.2,0 0.4,-0.1 0.5,-0.1c0.2,0 0.4,0 0.6,-0.1c0.2,-0.1 0.1,-0.3 0.3,-0.5c0.1,-0.1 0.3,0 0.4,-0.1c0.2,-0.1 0.3,-0.3 0.4,-0.5c0,-0.1 0,-0.1 0,-0.2c0,-0.1 0.1,-0.2 0.1,-0.3c0,-0.1 -0.1,-0.1 -0.1,-0.2c0,-0.1 0,-0.2 0,-0.3c0,-0.2 0,-0.4 -0.1,-0.5c-0.4,-0.7 -1.2,-0.9 -2,-0.8c-0.2,0 -0.3,0.1 -0.4,0.2c-0.2,0.1 -0.1,0.2 -0.3,0.2c-0.1,0 -0.2,0.1 -0.2,0.2c0,0.3 0,0.2 0,0.3c0,0 0,0 0,0" fill="#FFFFFF"/>
      <path id="svg_46" d="m31.1,-48.7c0,0.1 0,0.1 0,0.2c-0.1,0.1 -0.1,0.1 -0.2,0.1c-0.1,0.1 -0.1,0.3 -0.1,0.4c-0.2,0.1 0,0.2 0,0.3c0,0 0,0.1 0,0.2c0,0.1 0,0.3 0.1,0.4c0.1,0.2 0.3,0.4 0.4,0.5c0.2,0.1 0.4,0.6 0.6,0.6c0.2,0 0.4,-0.1 0.5,-0.1c0.2,0 0.4,0 0.6,-0.1c0.2,-0.1 0.1,-0.3 0.3,-0.5c0.1,-0.1 0.3,0 0.4,-0.1c0.2,-0.1 0.3,-0.3 0.4,-0.5c0,-0.1 0,-0.1 0,-0.2c0,-0.1 0.1,-0.2 0.1,-0.3c0,-0.1 -0.1,-0.1 -0.1,-0.2c0,-0.1 0,-0.2 0,-0.3c0,-0.2 0,-0.4 -0.1,-0.5c-0.4,-0.7 -1.2,-0.9 -2,-0.8c-0.2,0 -0.3,0.1 -0.4,0.2c-0.2,0.1 -0.1,0.2 -0.3,0.2c-0.1,0 -0.2,0.1 -0.2,0.2c0,0.3 0,0.2 0,0.3c0,0 0,0 0,0" fill="#FFFFFF"/>
      <path id="svg_47" d="m23.5,-48.7c0,0.1 0,0.1 0,0.2c-0.1,0.1 -0.1,0.1 -0.2,0.1c-0.1,0.1 -0.1,0.3 -0.1,0.4c-0.2,0.1 0,0.2 0,0.3c0,0 0,0.1 0,0.2c0,0.1 0,0.3 0.1,0.4c0.1,0.2 0.3,0.4 0.4,0.5c0.2,0.1 0.4,0.6 0.6,0.6c0.2,0 0.4,-0.1 0.5,-0.1c0.2,0 0.4,0 0.6,-0.1c0.2,-0.1 0.1,-0.3 0.3,-0.5c0.1,-0.1 0.3,0 0.4,-0.1c0.2,-0.1 0.3,-0.3 0.4,-0.5c0,-0.1 0,-0.1 0,-0.2c0,-0.1 0.1,-0.2 0.1,-0.3c0,-0.1 -0.1,-0.1 -0.1,-0.2c0,-0.1 0,-0.2 0,-0.3c0,-0.2 0,-0.4 -0.1,-0.5c-0.4,-0.7 -1.2,-0.9 -2,-0.8c-0.2,0 -0.3,0.1 -0.4,0.2c-0.2,0.1 -0.1,0.2 -0.3,0.2c-0.1,0 -0.2,0.1 -0.2,0.2c0,0.3 0,0.2 0,0.3c0,0 0,0 0,0" fill="#FFFFFF"/>
      <path id="svg_48" d="m15.8,-48.7c0,0.1 0,0.1 0,0.2c-0.1,0.1 -0.1,0.1 -0.2,0.1c-0.1,0.1 -0.1,0.3 -0.1,0.4c-0.2,0.1 0,0.2 0,0.3c0,0 0,0.1 0,0.2c0,0.1 0,0.3 0.1,0.4c0.1,0.2 0.3,0.4 0.4,0.5c0.2,0.1 0.4,0.6 0.6,0.6c0.2,0 0.4,-0.1 0.5,-0.1c0.2,0 0.4,0 0.6,-0.1c0.2,-0.1 0.1,-0.3 0.3,-0.5c0.1,-0.1 0.3,0 0.4,-0.1c0.2,-0.1 0.3,-0.3 0.4,-0.5c0,-0.1 0,-0.1 0,-0.2c0,-0.1 0.1,-0.2 0.1,-0.3c0,-0.1 -0.1,-0.1 -0.1,-0.2c0,-0.1 0,-0.2 0,-0.3c0,-0.2 0,-0.4 -0.1,-0.5c-0.4,-0.7 -1.2,-0.9 -2,-0.8c-0.2,0 -0.3,0.1 -0.4,0.2c-0.2,0.1 -0.1,0.2 -0.3,0.2c-0.1,0 -0.2,0.1 -0.2,0.2c0,0.3 0,0.2 0,0.3c0,0 0,0 0,0" fill="#FFFFFF"/>
      <path id="svg_49" d="m8.2,-48.7c0,0.1 0,0.1 0,0.2c-0.1,0.1 -0.2,0.1 -0.2,0.1c-0.1,0.1 -0.1,0.3 -0.1,0.4c-0.2,0.1 0,0.2 0,0.3c0,0 0,0.1 0,0.2c0,0.1 0,0.3 0.1,0.4c0.1,0.2 0.3,0.4 0.4,0.5c0.1,0.2 0.3,0.6 0.5,0.6c0.2,0 0.4,-0.1 0.5,-0.1c0.2,0 0.4,0 0.6,-0.1c0.2,-0.1 0.1,-0.3 0.3,-0.5c0.1,-0.1 0.3,0 0.4,-0.1c0.2,-0.1 0.3,-0.3 0.4,-0.5c0,-0.1 0,-0.1 0,-0.2c0,-0.1 0.1,-0.2 0.1,-0.3c0,-0.1 -0.1,-0.1 -0.1,-0.2c0,-0.1 0,-0.2 0,-0.3c0,-0.2 0,-0.4 -0.1,-0.5c-0.4,-0.7 -1.2,-0.9 -2,-0.8c-0.2,0 -0.3,0.1 -0.4,0.2c-0.2,0.1 -0.1,0.2 -0.3,0.2c-0.1,0 -0.2,0.1 -0.2,0.2c0.1,0.3 0.1,0.2 0.1,0.3c-0.1,0 -0.1,0 0,0" fill="#FFFFFF"/>
      <path id="svg_50" d="m0.5,-48.7c0,0.1 0,0.1 0,0.2c-0.1,0.1 -0.1,0.1 -0.2,0.1c-0.1,0.1 -0.1,0.3 -0.1,0.4c-0.2,0.1 0,0.2 0,0.3c0,0 0,0.1 0,0.2c0,0.1 0,0.3 0.1,0.4c0.1,0.2 0.3,0.4 0.4,0.5c0.2,0.2 0.3,0.6 0.6,0.6c0.2,0 0.4,-0.1 0.5,-0.1c0.2,0 0.4,0 0.6,-0.1c0.2,-0.1 0.1,-0.3 0.3,-0.5c0.1,-0.1 0.3,0 0.4,-0.1c0.2,-0.1 0.3,-0.3 0.4,-0.5c0,-0.1 0,-0.1 0,-0.2c0,-0.1 0.1,-0.2 0.1,-0.3c0,-0.1 -0.1,-0.1 -0.1,-0.2c0,-0.1 0,-0.2 0,-0.3c0,-0.2 0,-0.4 -0.1,-0.5c-0.4,-0.7 -1.2,-0.9 -2,-0.8c-0.2,0 -0.3,0.1 -0.4,0.2c-0.2,0.1 -0.1,0.2 -0.3,0.2c-0.1,0 -0.2,0.1 -0.2,0.2c0,0.3 0,0.2 0,0.3c0,0 0,0 0,0" fill="#FFFFFF"/>
     </g>
     <g id="svg_51">
      <path id="svg_52" d="m69.4,-41c0,0.1 0,0.1 0,0.2c-0.1,0.1 -0.1,0.1 -0.2,0.1c-0.1,0.1 -0.1,0.3 -0.1,0.4c-0.2,0.1 0,0.2 0,0.3c0,0 0,0.1 0,0.2c0,0.1 0,0.3 0.1,0.4c0.1,0.2 0.3,0.4 0.4,0.5c0.2,0.1 0.4,0.6 0.6,0.6c0.2,0 0.4,-0.1 0.5,-0.1c0.2,0 0.4,0 0.6,-0.1c0.2,-0.1 0.1,-0.3 0.3,-0.5c0.1,-0.1 0.3,0 0.4,-0.1c0.2,-0.1 0.3,-0.3 0.4,-0.5c0,-0.1 0,-0.1 0,-0.2c0,-0.1 0.1,-0.2 0.1,-0.3c0,-0.1 -0.1,-0.1 -0.1,-0.2c0,-0.1 0,-0.2 0,-0.3c0,-0.2 0,-0.4 -0.1,-0.5c-0.4,-0.7 -1.2,-0.9 -2,-0.8c-0.2,0 -0.3,0.1 -0.4,0.2c-0.2,0.1 -0.1,0.2 -0.3,0.2c-0.1,0 -0.2,0.1 -0.2,0.2c0,0.2 0,0.2 0,0.3c0,0 0,0 0,0" fill="#FFFFFF"/>
      <path id="svg_53" d="m61.8,-41c0,0.1 0,0.1 0,0.2c-0.1,0.1 -0.1,0.1 -0.2,0.1c-0.1,0.1 -0.1,0.3 -0.1,0.4c-0.2,0.1 0,0.2 0,0.3c0,0 0,0.1 0,0.2c0,0.1 0,0.3 0.1,0.4c0.1,0.2 0.3,0.4 0.4,0.5c0.2,0.1 0.4,0.6 0.6,0.6c0.2,0 0.4,-0.1 0.5,-0.1c0.2,0 0.4,0 0.6,-0.1c0.2,-0.1 0.1,-0.3 0.3,-0.5c0.1,-0.1 0.3,0 0.4,-0.1c0.2,-0.1 0.3,-0.3 0.4,-0.5c0,-0.1 0,-0.1 0,-0.2c0,-0.1 0.1,-0.2 0.1,-0.3c0,-0.1 -0.1,-0.1 -0.1,-0.2c0,-0.1 0,-0.2 0,-0.3c0,-0.2 0,-0.4 -0.1,-0.5c-0.4,-0.7 -1.2,-0.9 -2,-0.8c-0.2,0 -0.3,0.1 -0.4,0.2c-0.2,0.1 -0.1,0.2 -0.3,0.2c-0.1,0 -0.2,0.1 -0.2,0.2c0,0.2 0,0.2 0,0.3c0,0 0,0 0,0" fill="#FFFFFF"/>
      <path id="svg_54" d="m54.1,-41c0,0.1 0,0.1 0,0.2c-0.1,0.1 -0.1,0.1 -0.2,0.1c-0.1,0.1 -0.1,0.3 -0.1,0.4c-0.2,0.1 0,0.2 0,0.3c0,0 0,0.1 0,0.2c0,0.1 0,0.3 0.1,0.4c0.1,0.2 0.3,0.4 0.4,0.5c0.2,0.1 0.4,0.6 0.6,0.6c0.2,0 0.4,-0.1 0.5,-0.1c0.2,0 0.4,0 0.6,-0.1c0.2,-0.1 0.1,-0.3 0.3,-0.5c0.1,-0.1 0.3,0 0.4,-0.1c0.2,-0.1 0.3,-0.3 0.4,-0.5c0,-0.1 0,-0.1 0,-0.2c0,-0.1 0.1,-0.2 0.1,-0.3c0,-0.1 -0.1,-0.1 -0.1,-0.2c0,-0.1 0,-0.2 0,-0.3c0,-0.2 0,-0.4 -0.1,-0.5c-0.4,-0.7 -1.2,-0.9 -2,-0.8c-0.2,0 -0.3,0.1 -0.4,0.2c-0.2,0.1 -0.1,0.2 -0.3,0.2c-0.1,0 -0.2,0.1 -0.2,0.2c0,0.2 0,0.2 0,0.3c0,0 0,0 0,0" fill="#FFFFFF"/>
      <path id="svg_55" d="m46.5,-41c0,0.1 0,0.1 0,0.2c-0.1,0.1 -0.1,0.1 -0.2,0.1c-0.1,0.1 -0.1,0.3 -0.1,0.4c-0.2,0.1 0,0.2 0,0.3c0,0 0,0.1 0,0.2c0,0.1 0,0.3 0.1,0.4c0.1,0.2 0.3,0.4 0.4,0.5c0.2,0.1 0.4,0.6 0.6,0.6c0.2,0 0.4,-0.1 0.5,-0.1c0.2,0 0.4,0 0.6,-0.1c0.2,-0.1 0.1,-0.3 0.3,-0.5c0.1,-0.1 0.3,0 0.4,-0.1c0.2,-0.1 0.3,-0.3 0.4,-0.5c0,-0.1 0,-0.1 0,-0.2c0,-0.1 0.1,-0.2 0.1,-0.3c0,-0.1 -0.1,-0.1 -0.1,-0.2c0,-0.1 0,-0.2 0,-0.3c0,-0.2 0,-0.4 -0.1,-0.5c-0.4,-0.7 -1.2,-0.9 -2,-0.8c-0.2,0 -0.3,0.1 -0.4,0.2c-0.2,0.1 -0.1,0.2 -0.3,0.2c-0.1,0 -0.2,0.1 -0.2,0.2c0,0.2 0,0.2 0,0.3c0,0 0,0 0,0" fill="#FFFFFF"/>
      <path id="svg_56" d="m38.8,-41c0,0.1 0,0.1 0,0.2c-0.1,0.1 -0.1,0.1 -0.2,0.1c-0.1,0.1 -0.1,0.3 -0.1,0.4c-0.2,0.1 0,0.2 0,0.3c0,0 0,0.1 0,0.2c0,0.1 0,0.3 0.1,0.4c0.1,0.2 0.3,0.4 0.4,0.5c0.2,0.1 0.4,0.6 0.6,0.6c0.2,0 0.4,-0.1 0.5,-0.1c0.2,0 0.4,0 0.6,-0.1c0.2,-0.1 0.1,-0.3 0.3,-0.5c0.1,-0.1 0.3,0 0.4,-0.1c0.2,-0.1 0.3,-0.3 0.4,-0.5c0,-0.1 0,-0.1 0,-0.2c0,-0.1 0.1,-0.2 0.1,-0.3c0,-0.1 -0.1,-0.1 -0.1,-0.2c0,-0.1 0,-0.2 0,-0.3c0,-0.2 0,-0.4 -0.1,-0.5c-0.4,-0.7 -1.2,-0.9 -2,-0.8c-0.2,0 -0.3,0.1 -0.4,0.2c-0.2,0.1 -0.1,0.2 -0.3,0.2c-0.1,0 -0.2,0.1 -0.2,0.2c0,0.2 0,0.2 0,0.3c0,0 0,0 0,0" fill="#FFFFFF"/>
      <path id="svg_57" d="m31.1,-41c0,0.1 0,0.1 0,0.2c-0.1,0.1 -0.1,0.1 -0.2,0.1c-0.1,0.1 -0.1,0.3 -0.1,0.4c-0.2,0.1 0,0.2 0,0.3c0,0 0,0.1 0,0.2c0,0.1 0,0.3 0.1,0.4c0.1,0.2 0.3,0.4 0.4,0.5c0.2,0.1 0.4,0.6 0.6,0.6c0.2,0 0.4,-0.1 0.5,-0.1c0.2,0 0.4,0 0.6,-0.1c0.2,-0.1 0.1,-0.3 0.3,-0.5c0.1,-0.1 0.3,0 0.4,-0.1c0.2,-0.1 0.3,-0.3 0.4,-0.5c0,-0.1 0,-0.1 0,-0.2c0,-0.1 0.1,-0.2 0.1,-0.3c0,-0.1 -0.1,-0.1 -0.1,-0.2c0,-0.1 0,-0.2 0,-0.3c0,-0.2 0,-0.4 -0.1,-0.5c-0.4,-0.7 -1.2,-0.9 -2,-0.8c-0.2,0 -0.3,0.1 -0.4,0.2c-0.2,0.1 -0.1,0.2 -0.3,0.2c-0.1,0 -0.2,0.1 -0.2,0.2c0,0.2 0,0.2 0,0.3c0,0 0,0 0,0" fill="#FFFFFF"/>
      <path id="svg_58" d="m23.5,-41c0,0.1 0,0.1 0,0.2c-0.1,0.1 -0.1,0.1 -0.2,0.1c-0.1,0.1 -0.1,0.3 -0.1,0.4c-0.2,0.1 0,0.2 0,0.3c0,0 0,0.1 0,0.2c0,0.1 0,0.3 0.1,0.4c0.1,0.2 0.3,0.4 0.4,0.5c0.2,0.1 0.4,0.6 0.6,0.6c0.2,0 0.4,-0.1 0.5,-0.1c0.2,0 0.4,0 0.6,-0.1c0.2,-0.1 0.1,-0.3 0.3,-0.5c0.1,-0.1 0.3,0 0.4,-0.1c0.2,-0.1 0.3,-0.3 0.4,-0.5c0,-0.1 0,-0.1 0,-0.2c0,-0.1 0.1,-0.2 0.1,-0.3c0,-0.1 -0.1,-0.1 -0.1,-0.2c0,-0.1 0,-0.2 0,-0.3c0,-0.2 0,-0.4 -0.1,-0.5c-0.4,-0.7 -1.2,-0.9 -2,-0.8c-0.2,0 -0.3,0.1 -0.4,0.2c-0.2,0.1 -0.1,0.2 -0.3,0.2c-0.1,0 -0.2,0.1 -0.2,0.2c0,0.2 0,0.2 0,0.3c0,0 0,0 0,0" fill="#FFFFFF"/>
      <path id="svg_59" d="m15.8,-41c0,0.1 0,0.1 0,0.2c-0.1,0.1 -0.1,0.1 -0.2,0.1c-0.1,0.1 -0.1,0.3 -0.1,0.4c-0.2,0.1 0,0.2 0,0.3c0,0 0,0.1 0,0.2c0,0.1 0,0.3 0.1,0.4c0.1,0.2 0.3,0.4 0.4,0.5c0.2,0.1 0.4,0.6 0.6,0.6c0.2,0 0.4,-0.1 0.5,-0.1c0.2,0 0.4,0 0.6,-0.1c0.2,-0.1 0.1,-0.3 0.3,-0.5c0.1,-0.1 0.3,0 0.4,-0.1c0.2,-0.1 0.3,-0.3 0.4,-0.5c0,-0.1 0,-0.1 0,-0.2c0,-0.1 0.1,-0.2 0.1,-0.3c0,-0.1 -0.1,-0.1 -0.1,-0.2c0,-0.1 0,-0.2 0,-0.3c0,-0.2 0,-0.4 -0.1,-0.5c-0.4,-0.7 -1.2,-0.9 -2,-0.8c-0.2,0 -0.3,0.1 -0.4,0.2c-0.2,0.1 -0.1,0.2 -0.3,0.2c-0.1,0 -0.2,0.1 -0.2,0.2c0,0.2 0,0.2 0,0.3c0,0 0,0 0,0" fill="#FFFFFF"/>
      <path id="svg_60" d="m8.2,-41c0,0.1 0,0.1 0,0.2c-0.1,0 -0.2,0 -0.2,0.1c-0.1,0.1 -0.1,0.3 -0.1,0.4c-0.2,0.1 0,0.2 0,0.3c0,0 0,0.1 0,0.2c0,0.1 0,0.3 0.1,0.4c0.1,0.2 0.3,0.4 0.4,0.5c0.2,0.1 0.4,0.6 0.6,0.6c0.2,0 0.4,-0.1 0.5,-0.1c0.2,0 0.4,0 0.6,-0.1c0.2,-0.1 0.1,-0.3 0.3,-0.5c0.1,-0.1 0.3,0 0.4,-0.1c0.2,-0.1 0.3,-0.3 0.4,-0.5c0,-0.1 0,-0.1 0,-0.2c0,-0.1 0.1,-0.2 0.1,-0.3c0,-0.1 -0.1,-0.1 -0.1,-0.2c0,-0.1 0,-0.2 0,-0.3c0,-0.2 0,-0.4 -0.1,-0.5c-0.4,-0.7 -1.2,-0.9 -2,-0.8c-0.2,0 -0.3,0.1 -0.4,0.2c-0.2,0.1 -0.1,0.2 -0.3,0.2c-0.1,0 -0.2,0.1 -0.2,0.2c0,0.2 0,0.2 0,0.3c-0.1,0 -0.1,0 0,0" fill="#FFFFFF"/>
      <path id="svg_61" d="m0.5,-41c0,0.1 0,0.1 0,0.2c-0.1,0.1 -0.1,0.1 -0.2,0.1c-0.1,0.1 -0.1,0.3 -0.1,0.4c-0.2,0.1 0,0.2 0,0.3c0,0 0,0.1 0,0.2c0,0.1 0,0.3 0.1,0.4c0.1,0.2 0.3,0.4 0.4,0.5c0.2,0.1 0.4,0.6 0.6,0.6c0.2,0 0.4,-0.1 0.5,-0.1c0.2,0 0.4,0 0.6,-0.1c0.2,-0.1 0.1,-0.3 0.3,-0.5c0.1,0 0.3,0 0.4,0c0.2,-0.1 0.3,-0.3 0.4,-0.5c0,-0.1 0,-0.1 0,-0.2c0,-0.1 0.1,-0.2 0.1,-0.3c0,-0.1 -0.1,-0.1 -0.1,-0.2c0,-0.1 0,-0.2 0,-0.3c0,-0.2 0,-0.4 -0.1,-0.5c-0.4,-0.7 -1.2,-0.9 -2,-0.8c-0.2,0 -0.3,0.1 -0.4,0.2c-0.2,0.1 -0.1,0.2 -0.3,0.2c-0.1,0 -0.2,0.1 -0.2,0.2c0,0.1 0,0.1 0,0.2c0,0 0,0 0,0" fill="#FFFFFF"/>
     </g>
     <g id="svg_62">
      <path id="svg_63" d="m69.4,-33.4c0,0.1 0,0.1 0,0.2c-0.1,0.1 -0.1,0.1 -0.2,0.1c-0.1,0.1 -0.1,0.3 -0.1,0.4c-0.2,0.1 0,0.2 0,0.3c0,0 0,0.1 0,0.2c0,0.1 0,0.3 0.1,0.4c0.1,0.2 0.3,0.4 0.4,0.5c0.2,0.1 0.4,0.6 0.6,0.6c0.2,0 0.4,-0.1 0.5,-0.1c0.2,0 0.4,0 0.6,-0.1c0.2,-0.1 0.1,-0.3 0.3,-0.5c0.1,-0.1 0.3,0 0.4,-0.1c0.2,-0.1 0.3,-0.3 0.4,-0.5c0,-0.1 0,-0.1 0,-0.2c0,-0.1 0.1,-0.2 0.1,-0.3c0,-0.1 -0.1,-0.1 -0.1,-0.2c0,-0.1 0,-0.2 0,-0.3c0,-0.2 0,-0.4 -0.1,-0.5c-0.4,-0.7 -1.2,-0.9 -2,-0.8c-0.2,0 -0.3,0.1 -0.4,0.2c-0.2,0.1 -0.1,0.2 -0.3,0.2c-0.1,0 -0.2,0.1 -0.2,0.2c0,0.3 0,0.2 0,0.3c0,0 0,0 0,0" fill="#FFFFFF"/>
      <path id="svg_64" d="m61.8,-33.4c0,0.1 0,0.1 0,0.2c-0.1,0.1 -0.1,0.1 -0.2,0.1c-0.1,0.1 -0.1,0.3 -0.1,0.4c-0.2,0.1 0,0.2 0,0.3c0,0 0,0.1 0,0.2c0,0.1 0,0.3 0.1,0.4c0.1,0.2 0.3,0.4 0.4,0.5c0.2,0.1 0.4,0.6 0.6,0.6c0.2,0 0.4,-0.1 0.5,-0.1c0.2,0 0.4,0 0.6,-0.1c0.2,-0.1 0.1,-0.3 0.3,-0.5c0.1,-0.1 0.3,0 0.4,-0.1c0.2,-0.1 0.3,-0.3 0.4,-0.5c0,-0.1 0,-0.1 0,-0.2c0,-0.1 0.1,-0.2 0.1,-0.3c0,-0.1 -0.1,-0.1 -0.1,-0.2c0,-0.1 0,-0.2 0,-0.3c0,-0.2 0,-0.4 -0.1,-0.5c-0.4,-0.7 -1.2,-0.9 -2,-0.8c-0.2,0 -0.3,0.1 -0.4,0.2c-0.2,0.1 -0.1,0.2 -0.3,0.2c-0.1,0 -0.2,0.1 -0.2,0.2c0,0.3 0,0.2 0,0.3c0,0 0,0 0,0" fill="#FFFFFF"/>
      <path id="svg_65" d="m54.1,-33.4c0,0.1 0,0.1 0,0.2c-0.1,0.1 -0.1,0.1 -0.2,0.1c-0.1,0.1 -0.1,0.3 -0.1,0.4c-0.2,0.1 0,0.2 0,0.3c0,0 0,0.1 0,0.2c0,0.1 0,0.3 0.1,0.4c0.1,0.2 0.3,0.4 0.4,0.5c0.2,0.1 0.4,0.6 0.6,0.6c0.2,0 0.4,-0.1 0.5,-0.1c0.2,0 0.4,0 0.6,-0.1c0.2,-0.1 0.1,-0.3 0.3,-0.5c0.1,-0.1 0.3,0 0.4,-0.1c0.2,-0.1 0.3,-0.3 0.4,-0.5c0,-0.1 0,-0.1 0,-0.2c0,-0.1 0.1,-0.2 0.1,-0.3c0,-0.1 -0.1,-0.1 -0.1,-0.2c0,-0.1 0,-0.2 0,-0.3c0,-0.2 0,-0.4 -0.1,-0.5c-0.4,-0.7 -1.2,-0.9 -2,-0.8c-0.2,0 -0.3,0.1 -0.4,0.2c-0.2,0.1 -0.1,0.2 -0.3,0.2c-0.1,0 -0.2,0.1 -0.2,0.2c0,0.3 0,0.2 0,0.3c0,0 0,0 0,0" fill="#FFFFFF"/>
      <path id="svg_66" d="m46.5,-33.4c0,0.1 0,0.1 0,0.2c-0.1,0.1 -0.1,0.1 -0.2,0.1c-0.1,0.1 -0.1,0.3 -0.1,0.4c-0.2,0.1 0,0.2 0,0.3c0,0 0,0.1 0,0.2c0,0.1 0,0.3 0.1,0.4c0.1,0.2 0.3,0.4 0.4,0.5c0.2,0.1 0.4,0.6 0.6,0.6c0.2,0 0.4,-0.1 0.5,-0.1c0.2,0 0.4,0 0.6,-0.1c0.2,-0.1 0.1,-0.3 0.3,-0.5c0.1,-0.1 0.3,0 0.4,-0.1c0.2,-0.1 0.3,-0.3 0.4,-0.5c0,-0.1 0,-0.1 0,-0.2c0,-0.1 0.1,-0.2 0.1,-0.3c0,-0.1 -0.1,-0.1 -0.1,-0.2c0,-0.1 0,-0.2 0,-0.3c0,-0.2 0,-0.4 -0.1,-0.5c-0.4,-0.7 -1.2,-0.9 -2,-0.8c-0.2,0 -0.3,0.1 -0.4,0.2c-0.2,0.1 -0.1,0.2 -0.3,0.2c-0.1,0 -0.2,0.1 -0.2,0.2c0,0.3 0,0.2 0,0.3c0,0 0,0 0,0" fill="#FFFFFF"/>
      <path id="svg_67" d="m38.8,-33.4c0,0.1 0,0.1 0,0.2c-0.1,0.1 -0.1,0.1 -0.2,0.1c-0.1,0.1 -0.1,0.3 -0.1,0.4c-0.2,0.1 0,0.2 0,0.3c0,0 0,0.1 0,0.2c0,0.1 0,0.3 0.1,0.4c0.1,0.2 0.3,0.4 0.4,0.5c0.2,0.1 0.4,0.6 0.6,0.6c0.2,0 0.4,-0.1 0.5,-0.1c0.2,0 0.4,0 0.6,-0.1c0.2,-0.1 0.1,-0.3 0.3,-0.5c0.1,-0.1 0.3,0 0.4,-0.1c0.2,-0.1 0.3,-0.3 0.4,-0.5c0,-0.1 0,-0.1 0,-0.2c0,-0.1 0.1,-0.2 0.1,-0.3c0,-0.1 -0.1,-0.1 -0.1,-0.2c0,-0.1 0,-0.2 0,-0.3c0,-0.2 0,-0.4 -0.1,-0.5c-0.4,-0.7 -1.2,-0.9 -2,-0.8c-0.2,0 -0.3,0.1 -0.4,0.2c-0.2,0.1 -0.1,0.2 -0.3,0.2c-0.1,0 -0.2,0.1 -0.2,0.2c0,0.3 0,0.2 0,0.3c0,0 0,0 0,0" fill="#FFFFFF"/>
      <path id="svg_68" d="m31.1,-33.4c0,0.1 0,0.1 0,0.2c-0.1,0.1 -0.1,0.1 -0.2,0.1c-0.1,0.1 -0.1,0.3 -0.1,0.4c-0.2,0.1 0,0.2 0,0.3c0,0 0,0.1 0,0.2c0,0.1 0,0.3 0.1,0.4c0.1,0.2 0.3,0.4 0.4,0.5c0.2,0.1 0.4,0.6 0.6,0.6c0.2,0 0.4,-0.1 0.5,-0.1c0.2,0 0.4,0 0.6,-0.1c0.2,-0.1 0.1,-0.3 0.3,-0.5c0.1,-0.1 0.3,0 0.4,-0.1c0.2,-0.1 0.3,-0.3 0.4,-0.5c0,-0.1 0,-0.1 0,-0.2c0,-0.1 0.1,-0.2 0.1,-0.3c0,-0.1 -0.1,-0.1 -0.1,-0.2c0,-0.1 0,-0.2 0,-0.3c0,-0.2 0,-0.4 -0.1,-0.5c-0.4,-0.7 -1.2,-0.9 -2,-0.8c-0.2,0 -0.3,0.1 -0.4,0.2c-0.2,0.1 -0.1,0.2 -0.3,0.2c-0.1,0 -0.2,0.1 -0.2,0.2c0,0.3 0,0.2 0,0.3c0,0 0,0 0,0" fill="#FFFFFF"/>
      <path id="svg_69" d="m23.5,-33.4c0,0.1 0,0.1 0,0.2c-0.1,0.1 -0.1,0.1 -0.2,0.1c-0.1,0.1 -0.1,0.3 -0.1,0.4c-0.2,0.1 0,0.2 0,0.3c0,0 0,0.1 0,0.2c0,0.1 0,0.3 0.1,0.4c0.1,0.2 0.3,0.4 0.4,0.5c0.2,0.1 0.4,0.6 0.6,0.6c0.2,0 0.4,-0.1 0.5,-0.1c0.2,0 0.4,0 0.6,-0.1c0.2,-0.1 0.1,-0.3 0.3,-0.5c0.1,-0.1 0.3,0 0.4,-0.1c0.2,-0.1 0.3,-0.3 0.4,-0.5c0,-0.1 0,-0.1 0,-0.2c0,-0.1 0.1,-0.2 0.1,-0.3c0,-0.1 -0.1,-0.1 -0.1,-0.2c0,-0.1 0,-0.2 0,-0.3c0,-0.2 0,-0.4 -0.1,-0.5c-0.4,-0.7 -1.2,-0.9 -2,-0.8c-0.2,0 -0.3,0.1 -0.4,0.2c-0.2,0.1 -0.1,0.2 -0.3,0.2c-0.1,0 -0.2,0.1 -0.2,0.2c0,0.3 0,0.2 0,0.3c0,0 0,0 0,0" fill="#FFFFFF"/>
      <path id="svg_70" d="m15.8,-33.4c0,0.1 0,0.1 0,0.2c-0.1,0.1 -0.1,0.1 -0.2,0.1c-0.1,0.1 -0.1,0.3 -0.1,0.4c-0.2,0.1 0,0.2 0,0.3c0,0 0,0.1 0,0.2c0,0.1 0,0.3 0.1,0.4c0.1,0.2 0.3,0.4 0.4,0.5c0.2,0.1 0.4,0.6 0.6,0.6c0.2,0 0.4,-0.1 0.5,-0.1c0.2,0 0.4,0 0.6,-0.1c0.2,-0.1 0.1,-0.3 0.3,-0.5c0.1,-0.1 0.3,0 0.4,-0.1c0.2,-0.1 0.3,-0.3 0.4,-0.5c0,-0.1 0,-0.1 0,-0.2c0,-0.1 0.1,-0.2 0.1,-0.3c0,-0.1 -0.1,-0.1 -0.1,-0.2c0,-0.1 0,-0.2 0,-0.3c0,-0.2 0,-0.4 -0.1,-0.5c-0.4,-0.7 -1.2,-0.9 -2,-0.8c-0.2,0 -0.3,0.1 -0.4,0.2c-0.2,0.1 -0.1,0.2 -0.3,0.2c-0.1,0 -0.2,0.1 -0.2,0.2c0,0.3 0,0.2 0,0.3c0,0 0,0 0,0" fill="#FFFFFF"/>
      <path id="svg_71" d="m8.2,-33.4c0,0.1 0,0.1 0,0.2c-0.1,0.1 -0.2,0.1 -0.2,0.1c-0.1,0.1 -0.1,0.3 -0.1,0.4c-0.2,0.1 0,0.2 0,0.3c0,0 0,0.1 0,0.2c0,0.1 0,0.3 0.1,0.4c0.1,0.2 0.3,0.4 0.4,0.5c0.2,0.1 0.4,0.6 0.6,0.6c0.2,0 0.4,-0.1 0.5,-0.1c0.2,0 0.4,0 0.6,-0.1c0.2,-0.1 0.1,-0.3 0.3,-0.5c0.1,-0.1 0.3,0 0.4,-0.1c0.2,-0.1 0.3,-0.3 0.4,-0.5c0,-0.1 0,-0.1 0,-0.2c0,-0.1 0.1,-0.2 0.1,-0.3c0,-0.1 -0.1,-0.1 -0.1,-0.2c0,-0.1 0,-0.2 0,-0.3c0,-0.2 0,-0.4 -0.1,-0.5c-0.4,-0.7 -1.2,-0.9 -2,-0.8c-0.2,0 -0.3,0.1 -0.4,0.2c-0.2,0.1 -0.1,0.2 -0.3,0.2c-0.1,0 -0.2,0.1 -0.2,0.2c0,0.3 0,0.2 0,0.3c-0.1,0 -0.1,0 0,0" fill="#FFFFFF"/>
      <path id="svg_72" d="m0.5,-33.4c0,0.1 0,0.1 0,0.2c-0.1,0.1 -0.1,0.1 -0.2,0.1c-0.1,0.1 -0.1,0.3 -0.1,0.4c-0.2,0.1 0,0.2 0,0.3c0,0 0,0.1 0,0.2c0,0.1 0,0.3 0.1,0.4c0.1,0.2 0.3,0.4 0.4,0.5c0.2,0.1 0.4,0.6 0.6,0.6c0.2,0 0.4,-0.1 0.5,-0.1c0.2,0 0.4,0 0.6,-0.1c0.2,-0.1 0.1,-0.3 0.3,-0.5c0.1,-0.1 0.3,0 0.4,-0.1c0.2,-0.1 0.3,-0.3 0.4,-0.5c0,-0.1 0,-0.1 0,-0.2c0,-0.1 0.1,-0.2 0.1,-0.3c0,-0.1 -0.1,-0.1 -0.1,-0.2c0,-0.1 0,-0.2 0,-0.3c0,-0.2 0,-0.4 -0.1,-0.5c-0.4,-0.7 -1.2,-0.9 -2,-0.8c-0.2,0 -0.3,0.1 -0.4,0.2c-0.2,0.1 -0.1,0.2 -0.3,0.2c-0.1,0 -0.2,0.1 -0.2,0.2c0,0.3 0,0.2 0,0.3c0,0 0,0 0,0" fill="#FFFFFF"/>
     </g>
     <g id="svg_73">
      <path id="svg_74" d="m69.4,-25.7c0,0.1 0,0.1 0,0.2c-0.1,0.1 -0.1,0.1 -0.2,0.1c-0.1,0.1 -0.1,0.3 -0.1,0.4c-0.2,0.1 0,0.2 0,0.3c0,0 0,0.1 0,0.2c0,0.1 0,0.3 0.1,0.4c0.1,0.2 0.3,0.4 0.4,0.5c0.2,0.1 0.4,0.6 0.6,0.6c0.2,0 0.4,-0.1 0.5,-0.1c0.2,0 0.4,0 0.6,-0.1c0.2,-0.1 0.1,-0.3 0.3,-0.5c0.1,-0.1 0.3,0 0.4,-0.1c0.2,-0.1 0.3,-0.3 0.4,-0.5c0,-0.1 0,-0.1 0,-0.2c0,-0.1 0.1,-0.2 0.1,-0.3c0,-0.1 -0.1,-0.1 -0.1,-0.2c0,-0.1 0,-0.2 0,-0.3c0,-0.2 0,-0.4 -0.1,-0.5c-0.4,-0.7 -1.2,-0.9 -2,-0.8c-0.2,0 -0.3,0.1 -0.4,0.2c-0.2,0.1 -0.1,0.2 -0.3,0.2c-0.1,0 -0.2,0.1 -0.2,0.2c0,0.2 0,0.2 0,0.3c0,0 0,0 0,0" fill="#FFFFFF"/>
      <path id="svg_75" d="m61.8,-25.7c0,0.1 0,0.1 0,0.2c-0.1,0.1 -0.1,0.1 -0.2,0.1c-0.1,0.1 -0.1,0.3 -0.1,0.4c-0.2,0.1 0,0.2 0,0.3c0,0 0,0.1 0,0.2c0,0.1 0,0.3 0.1,0.4c0.1,0.2 0.3,0.4 0.4,0.5c0.2,0.1 0.4,0.6 0.6,0.6c0.2,0 0.4,-0.1 0.5,-0.1c0.2,0 0.4,0 0.6,-0.1c0.2,-0.1 0.1,-0.3 0.3,-0.5c0.1,-0.1 0.3,0 0.4,-0.1c0.2,-0.1 0.3,-0.3 0.4,-0.5c0,-0.1 0,-0.1 0,-0.2c0,-0.1 0.1,-0.2 0.1,-0.3c0,-0.1 -0.1,-0.1 -0.1,-0.2c0,-0.1 0,-0.2 0,-0.3c0,-0.2 0,-0.4 -0.1,-0.5c-0.4,-0.7 -1.2,-0.9 -2,-0.8c-0.2,0 -0.3,0.1 -0.4,0.2c-0.2,0.1 -0.1,0.2 -0.3,0.2c-0.1,0 -0.2,0.1 -0.2,0.2c0,0.2 0,0.2 0,0.3c0,0 0,0 0,0" fill="#FFFFFF"/>
      <path id="svg_76" d="m54.1,-25.7c0,0.1 0,0.1 0,0.2c-0.1,0.1 -0.1,0.1 -0.2,0.1c-0.1,0.1 -0.1,0.3 -0.1,0.4c-0.2,0.1 0,0.2 0,0.3c0,0 0,0.1 0,0.2c0,0.1 0,0.3 0.1,0.4c0.1,0.2 0.3,0.4 0.4,0.5c0.2,0.1 0.4,0.6 0.6,0.6c0.2,0 0.4,-0.1 0.5,-0.1c0.2,0 0.4,0 0.6,-0.1c0.2,-0.1 0.1,-0.3 0.3,-0.5c0.1,-0.1 0.3,0 0.4,-0.1c0.2,-0.1 0.3,-0.3 0.4,-0.5c0,-0.1 0,-0.1 0,-0.2c0,-0.1 0.1,-0.2 0.1,-0.3c0,-0.1 -0.1,-0.1 -0.1,-0.2c0,-0.1 0,-0.2 0,-0.3c0,-0.2 0,-0.4 -0.1,-0.5c-0.4,-0.7 -1.2,-0.9 -2,-0.8c-0.2,0 -0.3,0.1 -0.4,0.2c-0.2,0.1 -0.1,0.2 -0.3,0.2c-0.1,0 -0.2,0.1 -0.2,0.2c0,0.2 0,0.2 0,0.3c0,0 0,0 0,0" fill="#FFFFFF"/>
      <path id="svg_77" d="m46.5,-25.7c0,0.1 0,0.1 0,0.2c-0.1,0.1 -0.1,0.1 -0.2,0.1c-0.1,0.1 -0.1,0.3 -0.1,0.4c-0.2,0.1 0,0.2 0,0.3c0,0 0,0.1 0,0.2c0,0.1 0,0.3 0.1,0.4c0.1,0.2 0.3,0.4 0.4,0.5c0.2,0.1 0.4,0.6 0.6,0.6c0.2,0 0.4,-0.1 0.5,-0.1c0.2,0 0.4,0 0.6,-0.1c0.2,-0.1 0.1,-0.3 0.3,-0.5c0.1,-0.1 0.3,0 0.4,-0.1c0.2,-0.1 0.3,-0.3 0.4,-0.5c0,-0.1 0,-0.1 0,-0.2c0,-0.1 0.1,-0.2 0.1,-0.3c0,-0.1 -0.1,-0.1 -0.1,-0.2c0,-0.1 0,-0.2 0,-0.3c0,-0.2 0,-0.4 -0.1,-0.5c-0.4,-0.7 -1.2,-0.9 -2,-0.8c-0.2,0 -0.3,0.1 -0.4,0.2c-0.2,0.1 -0.1,0.2 -0.3,0.2c-0.1,0 -0.2,0.1 -0.2,0.2c0,0.2 0,0.2 0,0.3c0,0 0,0 0,0" fill="#FFFFFF"/>
      <path id="svg_78" d="m38.8,-25.7c0,0.1 0,0.1 0,0.2c-0.1,0.1 -0.1,0.1 -0.2,0.1c-0.1,0.1 -0.1,0.3 -0.1,0.4c-0.2,0.1 0,0.2 0,0.3c0,0 0,0.1 0,0.2c0,0.1 0,0.3 0.1,0.4c0.1,0.2 0.3,0.4 0.4,0.5c0.2,0.1 0.4,0.6 0.6,0.6c0.2,0 0.4,-0.1 0.5,-0.1c0.2,0 0.4,0 0.6,-0.1c0.2,-0.1 0.1,-0.3 0.3,-0.5c0.1,-0.1 0.3,0 0.4,-0.1c0.2,-0.1 0.3,-0.3 0.4,-0.5c0,-0.1 0,-0.1 0,-0.2c0,-0.1 0.1,-0.2 0.1,-0.3c0,-0.1 -0.1,-0.1 -0.1,-0.2c0,-0.1 0,-0.2 0,-0.3c0,-0.2 0,-0.4 -0.1,-0.5c-0.4,-0.7 -1.2,-0.9 -2,-0.8c-0.2,0 -0.3,0.1 -0.4,0.2c-0.2,0.1 -0.1,0.2 -0.3,0.2c-0.1,0 -0.2,0.1 -0.2,0.2c0,0.2 0,0.2 0,0.3c0,0 0,0 0,0" fill="#FFFFFF"/>
      <path id="svg_79" d="m31.1,-25.7c0,0.1 0,0.1 0,0.2c-0.1,0.1 -0.1,0.1 -0.2,0.1c-0.1,0.1 -0.1,0.3 -0.1,0.4c-0.2,0.1 0,0.2 0,0.3c0,0 0,0.1 0,0.2c0,0.1 0,0.3 0.1,0.4c0.1,0.2 0.3,0.4 0.4,0.5c0.2,0.1 0.4,0.6 0.6,0.6c0.2,0 0.4,-0.1 0.5,-0.1c0.2,0 0.4,0 0.6,-0.1c0.2,-0.1 0.1,-0.3 0.3,-0.5c0.1,-0.1 0.3,0 0.4,-0.1c0.2,-0.1 0.3,-0.3 0.4,-0.5c0,-0.1 0,-0.1 0,-0.2c0,-0.1 0.1,-0.2 0.1,-0.3c0,-0.1 -0.1,-0.1 -0.1,-0.2c0,-0.1 0,-0.2 0,-0.3c0,-0.2 0,-0.4 -0.1,-0.5c-0.4,-0.7 -1.2,-0.9 -2,-0.8c-0.2,0 -0.3,0.1 -0.4,0.2c-0.2,0.1 -0.1,0.2 -0.3,0.2c-0.1,0 -0.2,0.1 -0.2,0.2c0,0.2 0,0.2 0,0.3c0,0 0,0 0,0" fill="#FFFFFF"/>
      <path id="svg_80" d="m23.5,-25.7c0,0.1 0,0.1 0,0.2c-0.1,0.1 -0.1,0.1 -0.2,0.1c-0.1,0.1 -0.1,0.3 -0.1,0.4c-0.2,0.1 0,0.2 0,0.3c0,0 0,0.1 0,0.2c0,0.1 0,0.3 0.1,0.4c0.1,0.2 0.3,0.4 0.4,0.5c0.2,0.1 0.4,0.6 0.6,0.6c0.2,0 0.4,-0.1 0.5,-0.1c0.2,0 0.4,0 0.6,-0.1c0.2,-0.1 0.1,-0.3 0.3,-0.5c0.1,-0.1 0.3,0 0.4,-0.1c0.2,-0.1 0.3,-0.3 0.4,-0.5c0,-0.1 0,-0.1 0,-0.2c0,-0.1 0.1,-0.2 0.1,-0.3c0,-0.1 -0.1,-0.1 -0.1,-0.2c0,-0.1 0,-0.2 0,-0.3c0,-0.2 0,-0.4 -0.1,-0.5c-0.4,-0.7 -1.2,-0.9 -2,-0.8c-0.2,0 -0.3,0.1 -0.4,0.2c-0.2,0.1 -0.1,0.2 -0.3,0.2c-0.1,0 -0.2,0.1 -0.2,0.2c0,0.2 0,0.2 0,0.3c0,0 0,0 0,0" fill="#FFFFFF"/>
      <path id="svg_81" d="m15.8,-25.7c0,0.1 0,0.1 0,0.2c-0.1,0.1 -0.1,0.1 -0.2,0.1c-0.1,0.1 -0.1,0.3 -0.1,0.4c-0.2,0.1 0,0.2 0,0.3c0,0 0,0.1 0,0.2c0,0.1 0,0.3 0.1,0.4c0.1,0.2 0.3,0.4 0.4,0.5c0.2,0.1 0.4,0.6 0.6,0.6c0.2,0 0.4,-0.1 0.5,-0.1c0.2,0 0.4,0 0.6,-0.1c0.2,-0.1 0.1,-0.3 0.3,-0.5c0.1,-0.1 0.3,0 0.4,-0.1c0.2,-0.1 0.3,-0.3 0.4,-0.5c0,-0.1 0,-0.1 0,-0.2c0,-0.1 0.1,-0.2 0.1,-0.3c0,-0.1 -0.1,-0.1 -0.1,-0.2c0,-0.1 0,-0.2 0,-0.3c0,-0.2 0,-0.4 -0.1,-0.5c-0.4,-0.7 -1.2,-0.9 -2,-0.8c-0.2,0 -0.3,0.1 -0.4,0.2c-0.2,0.1 -0.1,0.2 -0.3,0.2c-0.1,0 -0.2,0.1 -0.2,0.2c0,0.2 0,0.2 0,0.3c0,0 0,0 0,0" fill="#FFFFFF"/>
      <path id="svg_82" d="m8.2,-25.7c0,0.1 0,0.1 0,0.2c-0.1,0.1 -0.2,0 -0.2,0.1c-0.1,0.1 -0.1,0.3 -0.1,0.4c-0.2,0.1 0,0.2 0,0.3c0,0 0,0.1 0,0.2c0,0.1 0,0.3 0.1,0.4c0,0.1 0.2,0.3 0.3,0.5c0.2,0.1 0.4,0.6 0.6,0.6c0.2,0 0.4,-0.1 0.5,-0.1c0.2,0 0.4,0 0.6,-0.1c0.2,-0.1 0.1,-0.3 0.3,-0.5c0.1,-0.1 0.3,0 0.4,-0.1c0.2,-0.1 0.3,-0.3 0.4,-0.5c0,-0.1 0,-0.1 0,-0.2c0,-0.1 0.1,-0.2 0.1,-0.3c0,-0.1 -0.1,-0.1 -0.1,-0.2c0,-0.1 0,-0.2 0,-0.3c0,-0.2 0,-0.4 -0.1,-0.5c-0.4,-0.7 -1.2,-0.9 -2,-0.8c-0.2,0 -0.3,0.1 -0.4,0.2c-0.2,0.1 -0.1,0.2 -0.3,0.2c-0.1,0 -0.2,0.1 -0.2,0.2c0.1,0.2 0.1,0.2 0.1,0.3c-0.1,0 -0.1,0 0,0" fill="#FFFFFF"/>
      <path id="svg_83" d="m0.5,-25.7c0,0.1 0,0.1 0,0.2c-0.1,0.1 -0.1,0.1 -0.2,0.1c-0.1,0.1 -0.1,0.3 -0.1,0.4c-0.2,0.1 0,0.2 0,0.3c0,0 0,0.1 0,0.2c0,0.1 0,0.3 0.1,0.4c0.1,0.2 0.3,0.4 0.4,0.5c0.2,0.1 0.3,0.5 0.6,0.6c0.2,0 0.4,-0.1 0.5,-0.1c0.2,0 0.4,0 0.6,-0.1c0.2,-0.1 0.1,-0.3 0.3,-0.5c0.1,-0.1 0.3,0 0.4,-0.1c0.2,-0.1 0.3,-0.3 0.4,-0.5c0,-0.1 0,-0.1 0,-0.2c0,-0.1 0.1,-0.2 0.1,-0.3c0,-0.1 -0.1,-0.1 -0.1,-0.2c0,-0.1 0,-0.2 0,-0.3c0,-0.2 0,-0.4 -0.1,-0.5c-0.4,-0.7 -1.2,-0.9 -2,-0.8c-0.2,0 -0.3,0.1 -0.4,0.2c-0.2,0.1 -0.1,0.2 -0.3,0.2c-0.1,0 -0.2,0.1 -0.2,0.2c0,0.2 0,0.2 0,0.3c0,0 0,0 0,0" fill="#FFFFFF"/>
     </g>
     <g id="svg_84">
      <path id="svg_85" d="m69.4,-18.1c0,0.1 0,0.1 0,0.2c-0.1,0.1 -0.1,0.1 -0.2,0.1c-0.1,0.1 -0.1,0.3 -0.1,0.4c-0.2,0.1 0,0.2 0,0.3c0,0 0,0.1 0,0.2c0,0.1 0,0.3 0.1,0.4c0.1,0.2 0.3,0.4 0.4,0.5c0.2,0.1 0.4,0.6 0.6,0.6c0.2,0 0.4,-0.1 0.5,-0.1c0.2,0 0.4,0 0.6,-0.1c0.2,-0.1 0.1,-0.3 0.3,-0.5c0.1,-0.1 0.3,0 0.4,-0.1c0.2,-0.1 0.3,-0.3 0.4,-0.5c0,-0.1 0,-0.1 0,-0.2c0,-0.1 0.1,-0.2 0.1,-0.3c0,-0.1 -0.1,-0.1 -0.1,-0.2c0,-0.1 0,-0.2 0,-0.3c0,-0.2 0,-0.4 -0.1,-0.5c-0.4,-0.7 -1.2,-0.9 -2,-0.8c-0.2,0 -0.3,0.1 -0.4,0.2c-0.2,0.1 -0.1,0.2 -0.3,0.2c-0.1,0 -0.2,0.1 -0.2,0.2c0,0.3 0,0.2 0,0.3c0,0.1 0,0 0,0" fill="#FFFFFF"/>
      <path id="svg_86" d="m61.8,-18.1c0,0.1 0,0.1 0,0.2c-0.1,0.1 -0.1,0.1 -0.2,0.1c-0.1,0.1 -0.1,0.3 -0.1,0.4c-0.2,0.1 0,0.2 0,0.3c0,0 0,0.1 0,0.2c0,0.1 0,0.3 0.1,0.4c0.1,0.2 0.3,0.4 0.4,0.5c0.2,0.1 0.4,0.6 0.6,0.6c0.2,0 0.4,-0.1 0.5,-0.1c0.2,0 0.4,0 0.6,-0.1c0.2,-0.1 0.1,-0.3 0.3,-0.5c0.1,-0.1 0.3,0 0.4,-0.1c0.2,-0.1 0.3,-0.3 0.4,-0.5c0,-0.1 0,-0.1 0,-0.2c0,-0.1 0.1,-0.2 0.1,-0.3c0,-0.1 -0.1,-0.1 -0.1,-0.2c0,-0.1 0,-0.2 0,-0.3c0,-0.2 0,-0.4 -0.1,-0.5c-0.4,-0.7 -1.2,-0.9 -2,-0.8c-0.2,0 -0.3,0.1 -0.4,0.2c-0.2,0.1 -0.1,0.2 -0.3,0.2c-0.1,0 -0.2,0.1 -0.2,0.2c0,0.3 0,0.2 0,0.3c0,0.1 0,0 0,0" fill="#FFFFFF"/>
      <path id="svg_87" d="m54.1,-18.1c0,0.1 0,0.1 0,0.2c-0.1,0.1 -0.1,0.1 -0.2,0.1c-0.1,0.1 -0.1,0.3 -0.1,0.4c-0.2,0.1 0,0.2 0,0.3c0,0 0,0.1 0,0.2c0,0.1 0,0.3 0.1,0.4c0.1,0.2 0.3,0.4 0.4,0.5c0.2,0.1 0.4,0.6 0.6,0.6c0.2,0 0.4,-0.1 0.5,-0.1c0.2,0 0.4,0 0.6,-0.1c0.2,-0.1 0.1,-0.3 0.3,-0.5c0.1,-0.1 0.3,0 0.4,-0.1c0.2,-0.1 0.3,-0.3 0.4,-0.5c0,-0.1 0,-0.1 0,-0.2c0,-0.1 0.1,-0.2 0.1,-0.3c0,-0.1 -0.1,-0.1 -0.1,-0.2c0,-0.1 0,-0.2 0,-0.3c0,-0.2 0,-0.4 -0.1,-0.5c-0.4,-0.7 -1.2,-0.9 -2,-0.8c-0.2,0 -0.3,0.1 -0.4,0.2c-0.2,0.1 -0.1,0.2 -0.3,0.2c-0.1,0 -0.2,0.1 -0.2,0.2c0,0.3 0,0.2 0,0.3c0,0.1 0,0 0,0" fill="#FFFFFF"/>
      <path id="svg_88" d="m46.5,-18.1c0,0.1 0,0.1 0,0.2c-0.1,0.1 -0.1,0.1 -0.2,0.1c-0.1,0.1 -0.1,0.3 -0.1,0.4c-0.2,0.1 0,0.2 0,0.3c0,0 0,0.1 0,0.2c0,0.1 0,0.3 0.1,0.4c0.1,0.2 0.3,0.4 0.4,0.5c0.2,0.1 0.4,0.6 0.6,0.6c0.2,0 0.4,-0.1 0.5,-0.1c0.2,0 0.4,0 0.6,-0.1c0.2,-0.1 0.1,-0.3 0.3,-0.5c0.1,-0.1 0.3,0 0.4,-0.1c0.2,-0.1 0.3,-0.3 0.4,-0.5c0,-0.1 0,-0.1 0,-0.2c0,-0.1 0.1,-0.2 0.1,-0.3c0,-0.1 -0.1,-0.1 -0.1,-0.2c0,-0.1 0,-0.2 0,-0.3c0,-0.2 0,-0.4 -0.1,-0.5c-0.4,-0.7 -1.2,-0.9 -2,-0.8c-0.2,0 -0.3,0.1 -0.4,0.2c-0.2,0.1 -0.1,0.2 -0.3,0.2c-0.1,0 -0.2,0.1 -0.2,0.2c0,0.3 0,0.2 0,0.3c0,0.1 0,0 0,0" fill="#FFFFFF"/>
      <path id="svg_89" d="m38.8,-18.1c0,0.1 0,0.1 0,0.2c-0.1,0.1 -0.1,0.1 -0.2,0.1c-0.1,0.1 -0.1,0.3 -0.1,0.4c-0.2,0.1 0,0.2 0,0.3c0,0 0,0.1 0,0.2c0,0.1 0,0.3 0.1,0.4c0.1,0.2 0.3,0.4 0.4,0.5c0.2,0.1 0.4,0.6 0.6,0.6c0.2,0 0.4,-0.1 0.5,-0.1c0.2,0 0.4,0 0.6,-0.1c0.2,-0.1 0.1,-0.3 0.3,-0.5c0.1,-0.1 0.3,0 0.4,-0.1c0.2,-0.1 0.3,-0.3 0.4,-0.5c0,-0.1 0,-0.1 0,-0.2c0,-0.1 0.1,-0.2 0.1,-0.3c0,-0.1 -0.1,-0.1 -0.1,-0.2c0,-0.1 0,-0.2 0,-0.3c0,-0.2 0,-0.4 -0.1,-0.5c-0.4,-0.7 -1.2,-0.9 -2,-0.8c-0.2,0 -0.3,0.1 -0.4,0.2c-0.2,0.1 -0.1,0.2 -0.3,0.2c-0.1,0 -0.2,0.1 -0.2,0.2c0,0.3 0,0.2 0,0.3c0,0.1 0,0 0,0" fill="#FFFFFF"/>
      <path id="svg_90" d="m31.1,-18.1c0,0.1 0,0.1 0,0.2c-0.1,0.1 -0.1,0.1 -0.2,0.1c-0.1,0.1 -0.1,0.3 -0.1,0.4c-0.2,0.1 0,0.2 0,0.3c0,0 0,0.1 0,0.2c0,0.1 0,0.3 0.1,0.4c0.1,0.2 0.3,0.4 0.4,0.5c0.2,0.1 0.4,0.6 0.6,0.6c0.2,0 0.4,-0.1 0.5,-0.1c0.2,0 0.4,0 0.6,-0.1c0.2,-0.1 0.1,-0.3 0.3,-0.5c0.1,-0.1 0.3,0 0.4,-0.1c0.2,-0.1 0.3,-0.3 0.4,-0.5c0,-0.1 0,-0.1 0,-0.2c0,-0.1 0.1,-0.2 0.1,-0.3c0,-0.1 -0.1,-0.1 -0.1,-0.2c0,-0.1 0,-0.2 0,-0.3c0,-0.2 0,-0.4 -0.1,-0.5c-0.4,-0.7 -1.2,-0.9 -2,-0.8c-0.2,0 -0.3,0.1 -0.4,0.2c-0.2,0.1 -0.1,0.2 -0.3,0.2c-0.1,0 -0.2,0.1 -0.2,0.2c0,0.3 0,0.2 0,0.3c0,0.1 0,0 0,0" fill="#FFFFFF"/>
      <path id="svg_91" d="m23.5,-18.1c0,0.1 0,0.1 0,0.2c-0.1,0.1 -0.1,0.1 -0.2,0.1c-0.1,0.1 -0.1,0.3 -0.1,0.4c-0.2,0.1 0,0.2 0,0.3c0,0 0,0.1 0,0.2c0,0.1 0,0.3 0.1,0.4c0.1,0.2 0.3,0.4 0.4,0.5c0.2,0.1 0.4,0.6 0.6,0.6c0.2,0 0.4,-0.1 0.5,-0.1c0.2,0 0.4,0 0.6,-0.1c0.2,-0.1 0.1,-0.3 0.3,-0.5c0.1,-0.1 0.3,0 0.4,-0.1c0.2,-0.1 0.3,-0.3 0.4,-0.5c0,-0.1 0,-0.1 0,-0.2c0,-0.1 0.1,-0.2 0.1,-0.3c0,-0.1 -0.1,-0.1 -0.1,-0.2c0,-0.1 0,-0.2 0,-0.3c0,-0.2 0,-0.4 -0.1,-0.5c-0.4,-0.7 -1.2,-0.9 -2,-0.8c-0.2,0 -0.3,0.1 -0.4,0.2c-0.2,0.1 -0.1,0.2 -0.3,0.2c-0.1,0 -0.2,0.1 -0.2,0.2c0,0.3 0,0.2 0,0.3c0,0.1 0,0 0,0" fill="#FFFFFF"/>
      <path id="svg_92" d="m15.8,-18.1c0,0.1 0,0.1 0,0.2c-0.1,0.1 -0.1,0.1 -0.2,0.1c-0.1,0.1 -0.1,0.3 -0.1,0.4c-0.2,0.1 0,0.2 0,0.3c0,0 0,0.1 0,0.2c0,0.1 0,0.3 0.1,0.4c0.1,0.2 0.3,0.4 0.4,0.5c0.2,0.1 0.4,0.6 0.6,0.6c0.2,0 0.4,-0.1 0.5,-0.1c0.2,0 0.4,0 0.6,-0.1c0.2,-0.1 0.1,-0.3 0.3,-0.5c0.1,-0.1 0.3,0 0.4,-0.1c0.2,-0.1 0.3,-0.3 0.4,-0.5c0,-0.1 0,-0.1 0,-0.2c0,-0.1 0.1,-0.2 0.1,-0.3c0,-0.1 -0.1,-0.1 -0.1,-0.2c0,-0.1 0,-0.2 0,-0.3c0,-0.2 0,-0.4 -0.1,-0.5c-0.4,-0.7 -1.2,-0.9 -2,-0.8c-0.2,0 -0.3,0.1 -0.4,0.2c-0.2,0.1 -0.1,0.2 -0.3,0.2c-0.1,0 -0.2,0.1 -0.2,0.2c0,0.3 0,0.2 0,0.3c0,0.1 0,0 0,0" fill="#FFFFFF"/>
      <path id="svg_93" d="m8.2,-18.1c0,0.1 0,0.1 0,0.2c-0.1,0.1 -0.2,0.1 -0.2,0.1c-0.1,0.1 -0.1,0.3 -0.1,0.4c-0.2,0.1 0,0.2 0,0.3c0,0 0,0.1 0,0.2c0,0.1 0,0.3 0.1,0.4c0,0.2 0.2,0.4 0.3,0.5c0.2,0.1 0.4,0.6 0.6,0.6c0.2,0 0.4,-0.1 0.5,-0.1c0.2,0 0.4,0 0.6,-0.1c0.2,-0.1 0.1,-0.3 0.3,-0.5c0.1,-0.1 0.3,0 0.4,-0.1c0.2,-0.1 0.3,-0.3 0.4,-0.5c0,-0.1 0,-0.1 0,-0.2c0,-0.1 0.1,-0.2 0.1,-0.3c0,-0.1 -0.1,-0.1 -0.1,-0.2c0,-0.1 0,-0.2 0,-0.3c0,-0.2 0,-0.4 -0.1,-0.5c-0.4,-0.7 -1.2,-0.9 -2,-0.8c-0.2,0 -0.3,0.1 -0.4,0.2c-0.2,0.1 -0.1,0.2 -0.3,0.2c-0.1,0 -0.2,0.1 -0.2,0.2c0.1,0.3 0.1,0.2 0.1,0.3c-0.1,0.1 -0.1,0 0,0" fill="#FFFFFF"/>
      <path id="svg_94" d="m0.5,-18.1c0,0.1 0,0.1 0,0.2c-0.1,0.1 -0.1,0.1 -0.2,0.1c-0.1,0.1 -0.1,0.3 -0.1,0.4c-0.2,0.1 0,0.2 0,0.3c0,0 0,0.1 0,0.2c0,0.1 0,0.3 0.1,0.4c0.1,0.2 0.3,0.4 0.4,0.5c0.2,0.1 0.4,0.6 0.6,0.6c0.2,0 0.4,-0.1 0.5,-0.1c0.2,0 0.4,0 0.6,-0.1c0.2,-0.1 0.1,-0.3 0.3,-0.5c0.1,0 0.3,0.1 0.4,0.1c0.2,-0.1 0.3,-0.3 0.4,-0.5c0,-0.1 0,-0.1 0,-0.2c0,-0.1 0.1,-0.2 0.1,-0.3c0,-0.1 -0.1,-0.1 -0.1,-0.2c0,-0.1 0,-0.2 0,-0.3c0,-0.2 0,-0.4 -0.1,-0.5c-0.4,-0.7 -1.2,-0.9 -2,-0.8c-0.2,0 -0.3,0.1 -0.4,0.2c-0.2,0.1 -0.1,0.2 -0.3,0.2c-0.1,0 -0.2,0.1 -0.2,0.2c0,0.1 0,0 0,0.1c0,0.1 0,0 0,0" fill="#FFFFFF"/>
     </g>
     <g id="svg_95">
      <path id="svg_96" d="m69.4,-10.4c0,0.1 0,0.1 0,0.2c-0.1,0.1 -0.1,0.1 -0.2,0.1c-0.1,0.1 -0.1,0.3 -0.1,0.4c-0.2,0.1 0,0.2 0,0.3c0,0 0,0.1 0,0.2c0,0.1 0,0.3 0.1,0.4c0.1,0.2 0.3,0.4 0.4,0.5c0.2,0.1 0.4,0.6 0.6,0.6c0.2,0 0.4,-0.1 0.5,-0.1c0.2,0 0.4,0 0.6,-0.1c0.2,-0.1 0.1,-0.3 0.3,-0.5c0.1,-0.1 0.3,0 0.4,-0.1c0.2,-0.1 0.3,-0.3 0.4,-0.5c0,-0.1 0,-0.1 0,-0.2c0,-0.1 0.1,-0.2 0.1,-0.3c0,-0.1 -0.1,-0.1 -0.1,-0.2c0,-0.1 0,-0.2 0,-0.3c0,-0.2 0,-0.4 -0.1,-0.5c-0.4,-0.7 -1.2,-0.9 -2,-0.8c-0.2,0 -0.3,0.1 -0.4,0.2c-0.2,0.1 -0.1,0.2 -0.3,0.2c-0.1,0 -0.2,0.1 -0.2,0.2c0,0.2 0,0.2 0,0.3c0,0 0,0 0,0" fill="#FFFFFF"/>
      <path id="svg_97" d="m61.8,-10.4c0,0.1 0,0.1 0,0.2c-0.1,0.1 -0.1,0.1 -0.2,0.1c-0.1,0.1 -0.1,0.3 -0.1,0.4c-0.2,0.1 0,0.2 0,0.3c0,0 0,0.1 0,0.2c0,0.1 0,0.3 0.1,0.4c0.1,0.2 0.3,0.4 0.4,0.5c0.2,0.1 0.4,0.6 0.6,0.6c0.2,0 0.4,-0.1 0.5,-0.1c0.2,0 0.4,0 0.6,-0.1c0.2,-0.1 0.1,-0.3 0.3,-0.4c0.1,-0.1 0.3,0 0.4,-0.1c0.2,-0.1 0.3,-0.3 0.4,-0.5c0,-0.1 0,-0.1 0,-0.2c0,-0.1 0.1,-0.2 0.1,-0.3c0,-0.1 -0.1,-0.1 -0.1,-0.2c0,-0.1 0,-0.2 0,-0.3c0,-0.2 0,-0.4 -0.1,-0.5c-0.4,-0.7 -1.2,-0.9 -2,-0.8c-0.2,0 -0.3,0.1 -0.4,0.2c-0.2,0.1 -0.1,0.2 -0.3,0.2c-0.1,0 -0.2,0.1 -0.2,0.2c0,0.1 0,0.1 0,0.2c0,0 0,0 0,0" fill="#FFFFFF"/>
      <path id="svg_98" d="m54.1,-10.4c0,0.1 0,0.1 0,0.2c-0.1,0.1 -0.1,0.1 -0.2,0.1c-0.1,0.1 -0.1,0.3 -0.1,0.4c-0.2,0.1 0,0.2 0,0.3c0,0 0,0.1 0,0.2c0,0.1 0,0.3 0.1,0.4c0.1,0.2 0.3,0.4 0.4,0.5c0.2,0.1 0.4,0.6 0.6,0.6c0.2,0 0.4,-0.1 0.5,-0.1c0.2,0 0.4,0 0.6,-0.1c0.2,-0.1 0.1,-0.3 0.3,-0.5c0.1,-0.1 0.3,0 0.4,-0.1c0.2,-0.1 0.3,-0.3 0.4,-0.5c0,-0.1 0,-0.1 0,-0.2c0,-0.1 0.1,-0.2 0.1,-0.3c0,-0.1 -0.1,-0.1 -0.1,-0.2c0,-0.1 0,-0.2 0,-0.3c0,-0.2 0,-0.4 -0.1,-0.5c-0.4,-0.7 -1.2,-0.9 -2,-0.8c-0.2,0 -0.3,0.1 -0.4,0.2c-0.2,0.1 -0.1,0.2 -0.3,0.2c-0.1,0 -0.2,0.1 -0.2,0.2c0,0.2 0,0.2 0,0.3c0,0 0,0 0,0" fill="#FFFFFF"/>
      <path id="svg_99" d="m46.5,-10.4c0,0.1 0,0.1 0,0.2c-0.1,0.1 -0.1,0.1 -0.2,0.1c-0.1,0.1 -0.1,0.3 -0.1,0.4c-0.2,0.1 0,0.2 0,0.3c0,0 0,0.1 0,0.2c0,0.1 0,0.3 0.1,0.4c0.1,0.2 0.3,0.4 0.4,0.5c0.2,0.1 0.4,0.6 0.6,0.6c0.2,0 0.4,-0.1 0.5,-0.1c0.2,0 0.4,0 0.6,-0.1c0.2,-0.1 0.1,-0.3 0.3,-0.5c0.1,-0.1 0.3,0 0.4,-0.1c0.2,-0.1 0.3,-0.3 0.4,-0.5c0,-0.1 0,-0.1 0,-0.2c0,-0.1 0.1,-0.2 0.1,-0.3c0,-0.1 -0.1,-0.1 -0.1,-0.2c0,-0.1 0,-0.2 0,-0.3c0,-0.2 0,-0.4 -0.1,-0.5c-0.4,-0.7 -1.2,-0.9 -2,-0.8c-0.2,0 -0.3,0.1 -0.4,0.2c-0.2,0.1 -0.1,0.2 -0.3,0.2c-0.1,0 -0.2,0.1 -0.2,0.2c0,0.2 0,0.2 0,0.3c0,0 0,0 0,0" fill="#FFFFFF"/>
      <path id="svg_100" d="m38.8,-10.4c0,0.1 0,0.1 0,0.2c-0.1,0.1 -0.1,0.1 -0.2,0.1c-0.1,0.1 -0.1,0.3 -0.1,0.4c-0.2,0.1 0,0.2 0,0.3c0,0 0,0.1 0,0.2c0,0.1 0,0.3 0.1,0.4c0.1,0.2 0.3,0.4 0.4,0.5c0.2,0.1 0.4,0.6 0.6,0.6c0.2,0 0.4,-0.1 0.5,-0.1c0.2,0 0.4,0 0.6,-0.1c0.2,-0.1 0.1,-0.3 0.3,-0.4c0.1,-0.1 0.3,0 0.4,-0.1c0.2,-0.1 0.3,-0.3 0.4,-0.5c0,-0.1 0,-0.1 0,-0.2c0,-0.1 0.1,-0.2 0.1,-0.3c0,-0.1 -0.1,-0.1 -0.1,-0.2c0,-0.1 0,-0.2 0,-0.3c0,-0.2 0,-0.4 -0.1,-0.5c-0.4,-0.7 -1.2,-0.9 -2,-0.8c-0.2,0 -0.3,0.1 -0.4,0.2c-0.2,0.1 -0.1,0.2 -0.3,0.2c-0.1,0 -0.2,0.1 -0.2,0.2c0,0.1 0,0.1 0,0.2c0,0 0,0 0,0" fill="#FFFFFF"/>
      <path id="svg_101" d="m31.1,-10.4c0,0.1 0,0.1 0,0.2c-0.1,0.1 -0.1,0.1 -0.2,0.1c-0.1,0.1 -0.1,0.3 -0.1,0.4c-0.2,0.1 0,0.2 0,0.3c0,0 0,0.1 0,0.2c0,0.1 0,0.3 0.1,0.4c0.1,0.2 0.3,0.4 0.4,0.5c0.2,0.1 0.4,0.6 0.6,0.6c0.2,0 0.4,-0.1 0.5,-0.1c0.2,0 0.4,0 0.6,-0.1c0.2,-0.1 0.1,-0.3 0.3,-0.5c0.1,-0.1 0.3,0 0.4,-0.1c0.2,-0.1 0.3,-0.3 0.4,-0.5c0,-0.1 0,-0.1 0,-0.2c0,-0.1 0.1,-0.2 0.1,-0.3c0,-0.1 -0.1,-0.1 -0.1,-0.2c0,-0.1 0,-0.2 0,-0.3c0,-0.2 0,-0.4 -0.1,-0.5c-0.4,-0.7 -1.2,-0.9 -2,-0.8c-0.2,0 -0.3,0.1 -0.4,0.2c-0.2,0.1 -0.1,0.2 -0.3,0.2c-0.1,0 -0.2,0.1 -0.2,0.2c0,0.2 0,0.2 0,0.3c0,0 0,0 0,0" fill="#FFFFFF"/>
      <path id="svg_102" d="m23.5,-10.4c0,0.1 0,0.1 0,0.2c-0.1,0.1 -0.1,0.1 -0.2,0.1c-0.1,0.1 -0.1,0.3 -0.1,0.4c-0.2,0.1 0,0.2 0,0.3c0,0 0,0.1 0,0.2c0,0.1 0,0.3 0.1,0.4c0.1,0.2 0.3,0.4 0.4,0.5c0.2,0.1 0.4,0.6 0.6,0.6c0.2,0 0.4,-0.1 0.5,-0.1c0.2,0 0.4,0 0.6,-0.1c0.2,-0.1 0.1,-0.3 0.3,-0.5c0.1,-0.1 0.3,0 0.4,-0.1c0.2,-0.1 0.3,-0.3 0.4,-0.5c0,-0.1 0,-0.1 0,-0.2c0,-0.1 0.1,-0.2 0.1,-0.3c0,-0.1 -0.1,-0.1 -0.1,-0.2c0,-0.1 0,-0.2 0,-0.3c0,-0.2 0,-0.4 -0.1,-0.5c-0.4,-0.7 -1.2,-0.9 -2,-0.8c-0.2,0 -0.3,0.1 -0.4,0.2c-0.2,0.1 -0.1,0.2 -0.3,0.2c-0.1,0 -0.2,0.1 -0.2,0.2c0,0.2 0,0.2 0,0.3c0,0 0,0 0,0" fill="#FFFFFF"/>
      <path id="svg_103" d="m15.8,-10.4c0,0.1 0,0.1 0,0.2c-0.1,0.1 -0.1,0.1 -0.2,0.1c-0.1,0.1 -0.1,0.3 -0.1,0.4c-0.2,0.1 0,0.2 0,0.3c0,0 0,0.1 0,0.2c0,0.1 0,0.3 0.1,0.4c0.1,0.2 0.3,0.4 0.4,0.5c0.2,0.1 0.4,0.6 0.6,0.6c0.2,0 0.4,-0.1 0.5,-0.1c0.2,0 0.4,0 0.6,-0.1c0.2,-0.1 0.1,-0.3 0.3,-0.4c0.1,-0.1 0.3,0 0.4,-0.1c0.2,-0.1 0.3,-0.3 0.4,-0.5c0,-0.1 0,-0.1 0,-0.2c0,-0.1 0.1,-0.2 0.1,-0.3c0,-0.1 -0.1,-0.1 -0.1,-0.2c0,-0.1 0,-0.2 0,-0.3c0,-0.2 0,-0.4 -0.1,-0.5c-0.4,-0.7 -1.2,-0.9 -2,-0.8c-0.2,0 -0.3,0.1 -0.4,0.2c-0.2,0.1 -0.1,0.2 -0.3,0.2c-0.1,0 -0.2,0.1 -0.2,0.2c0,0.1 0,0.1 0,0.2c0,0 0,0 0,0" fill="#FFFFFF"/>
      <path id="svg_104" d="m8.2,-10.4c0,0.1 0,0.1 0,0.2c-0.1,0.1 -0.2,0 -0.2,0.1c-0.1,0.1 -0.1,0.3 -0.1,0.3c-0.2,0.1 0,0.2 0,0.3c0,0 0,0.1 0,0.2c0,0.1 0,0.3 0.1,0.4c0,0.2 0.2,0.4 0.3,0.6c0.2,0.1 0.4,0.6 0.6,0.6c0.2,0 0.4,-0.1 0.5,-0.1c0.2,0 0.4,0 0.6,-0.1c0.2,-0.1 0.1,-0.3 0.3,-0.5c0.1,-0.1 0.3,0 0.4,-0.1c0.2,-0.1 0.3,-0.3 0.4,-0.5c0,-0.1 0,-0.1 0,-0.2c0,-0.1 0.1,-0.2 0.1,-0.3c0,-0.1 -0.1,-0.1 -0.1,-0.2c0,-0.1 0,-0.2 0,-0.3c0,-0.2 0,-0.4 -0.1,-0.5c-0.4,-0.7 -1.2,-0.9 -2,-0.8c-0.2,0 -0.3,0.1 -0.4,0.2c-0.2,0.1 -0.1,0.2 -0.3,0.2c-0.1,0 -0.2,0.1 -0.2,0.2c0.1,0.2 0.1,0.2 0.1,0.3c-0.1,0 -0.1,0 0,0" fill="#FFFFFF"/>
      <path id="svg_105" d="m0.5,-10.4c0,0.1 0,0.1 0,0.2c-0.1,0.1 -0.1,0.1 -0.2,0.1c0,0.1 -0.1,0.3 -0.1,0.3c-0.2,0.1 0,0.2 0,0.3c0,0 0,0.1 0,0.2c0,0.1 0,0.3 0.1,0.4c0.1,0.2 0.3,0.4 0.4,0.5c0.2,0.2 0.3,0.6 0.6,0.7c0.2,0 0.4,-0.1 0.5,-0.1c0.2,0 0.4,0 0.6,-0.1c0.2,-0.1 0.1,-0.3 0.3,-0.4c0.1,-0.1 0.3,0 0.4,-0.1c0.2,-0.1 0.3,-0.3 0.4,-0.5c0,-0.1 0,-0.1 0,-0.2c0,-0.1 0.1,-0.2 0.1,-0.3c0,-0.1 -0.1,-0.1 -0.1,-0.2c0,-0.1 0,-0.2 0,-0.3c0,-0.2 0,-0.4 -0.1,-0.5c-0.4,-0.7 -1.2,-0.9 -2,-0.8c-0.2,0 -0.3,0.1 -0.4,0.2c-0.2,0.1 -0.1,0.2 -0.3,0.2c-0.1,0 -0.2,0.1 -0.2,0.2c0,0.1 0,0.1 0,0.2c0,0 0,0 0,0" fill="#FFFFFF"/>
     </g>
    </g>
    <g id="svg_106">
     <path id="svg_107" d="m69.4,-2.8c0,0.1 0,0.1 0,0.2c-0.1,0.1 -0.1,0.1 -0.2,0.1c-0.1,0.1 -0.1,0.3 -0.1,0.4c-0.2,0.1 0,0.2 0,0.3c0,0 0,0.1 0,0.2c0,0.1 0,0.3 0.1,0.4c0.1,0.2 0.3,0.4 0.4,0.5c0.2,0.2 0.4,0.6 0.6,0.7c0.2,0 0.4,-0.1 0.5,-0.1c0.2,0 0.4,0 0.6,-0.1c0.2,-0.1 0.1,-0.3 0.3,-0.5c0.1,-0.1 0.3,0 0.4,-0.1c0.2,-0.1 0.3,-0.3 0.4,-0.5c0,-0.1 0,-0.1 0,-0.2c0,-0.1 0.1,-0.2 0.1,-0.3c0,-0.1 -0.1,-0.1 -0.1,-0.2c0,-0.1 0,-0.2 0,-0.3c0,-0.2 0,-0.4 -0.1,-0.5c-0.4,-0.7 -1.2,-0.9 -2,-0.8c-0.2,0 -0.3,0.1 -0.4,0.2c-0.2,0.1 -0.1,0.2 -0.3,0.2c-0.1,0 -0.2,0.1 -0.2,0.2c0,0.2 0,0.1 0,0.2c0,0.1 0,0 0,0" fill="#FFFFFF"/>
     <path id="svg_108" d="m61.8,-2.8c0,0.1 0,0.1 0,0.2c-0.1,0.1 -0.1,0.1 -0.2,0.1c-0.1,0.1 -0.1,0.3 -0.1,0.4c-0.2,0.1 0,0.2 0,0.3c0,0 0,0.1 0,0.2c0,0.1 0,0.3 0.1,0.4c0,0.2 0.2,0.4 0.4,0.5c0.2,0.1 0.4,0.6 0.6,0.6c0.2,0 0.4,-0.1 0.5,-0.1c0.2,0 0.4,0 0.6,-0.1c0.2,-0.1 0.1,-0.3 0.3,-0.5c0.1,-0.1 0.3,0 0.4,-0.1c0.2,-0.1 0.3,-0.3 0.4,-0.5c0,-0.1 0,-0.1 0,-0.2c0,-0.1 0.1,-0.2 0.1,-0.3c0,-0.1 -0.1,-0.1 -0.1,-0.2c0,-0.1 0,-0.2 0,-0.3c0,-0.2 0,-0.4 -0.1,-0.5c-0.4,-0.7 -1.2,-0.9 -2,-0.8c-0.2,0 -0.3,0.1 -0.4,0.2c-0.2,0.1 -0.1,0.2 -0.3,0.2c-0.1,0 -0.2,0.1 -0.2,0.2c0,0.3 0,0.2 0,0.3c0,0.1 0,0 0,0" fill="#FFFFFF"/>
     <path id="svg_109" d="m54.1,-2.8c0,0.1 0,0.1 0,0.2c-0.1,0.1 -0.1,0.1 -0.2,0.1c-0.1,0.1 -0.1,0.3 -0.1,0.4c-0.2,0.1 0,0.2 0,0.3c0,0 0,0.1 0,0.2c0,0.1 0,0.3 0.1,0.4c0.1,0.2 0.2,0.4 0.4,0.5c0.2,0.1 0.4,0.6 0.6,0.6c0.2,0 0.4,-0.1 0.5,-0.1c0.2,0 0.4,0 0.6,-0.1c0.2,-0.1 0.1,-0.3 0.3,-0.5c0.1,-0.1 0.3,0 0.4,-0.1c0.2,0.1 0.3,-0.1 0.4,-0.3c0,-0.1 0,-0.1 0,-0.2c0,-0.1 0.1,-0.2 0.1,-0.3c0,-0.1 -0.1,-0.1 -0.1,-0.2c0,-0.1 0,-0.2 0,-0.3c0,-0.2 0,-0.4 -0.1,-0.5c-0.4,-0.7 -1.2,-0.9 -2,-0.8c-0.2,0 -0.3,0.1 -0.4,0.2c-0.2,0.1 -0.1,0.2 -0.3,0.2c-0.1,0 -0.2,0.1 -0.2,0.2c0,0.1 0,0 0,0.1c0,0.1 0,0 0,0" fill="#FFFFFF"/>
     <path id="svg_110" d="m46.5,-2.8c0,0.1 0,0.1 0,0.2c-0.1,0.1 -0.1,0.1 -0.2,0.1c-0.1,0.1 -0.1,0.3 -0.1,0.4c-0.2,0.1 0,0.2 0,0.3c0,0 0,0.1 0,0.2c0,0.1 0,0.3 0.1,0.4c0.1,0.2 0.3,0.4 0.4,0.5c0.1,0.2 0.3,0.6 0.5,0.7c0.2,0 0.4,-0.1 0.5,-0.1c0.2,0 0.4,0 0.6,-0.1c0.2,-0.1 0.1,-0.3 0.3,-0.5c0.1,-0.1 0.3,0 0.4,-0.1c0.2,-0.1 0.3,-0.3 0.4,-0.5c0,-0.1 0,-0.1 0,-0.2c0,-0.1 0.1,-0.2 0.1,-0.3c0,-0.1 -0.1,-0.1 -0.1,-0.2c0,-0.1 0,-0.2 0,-0.3c0,-0.2 0,-0.4 -0.1,-0.5c-0.4,-0.7 -1.2,-0.9 -2,-0.8c-0.2,0 -0.3,0.1 -0.4,0.2c-0.2,0.1 -0.1,0.2 -0.3,0.2c-0.1,0 -0.2,0.1 -0.2,0.2c0.1,0.2 0.1,0.1 0.1,0.2c0,0.1 0,0 0,0" fill="#FFFFFF"/>
     <path id="svg_111" d="m38.8,-2.8c0,0.1 0,0.1 0,0.2c-0.1,0.1 -0.1,0.1 -0.2,0.1c-0.1,0.1 -0.1,0.3 -0.1,0.4c-0.2,0.1 0,0.2 0,0.3c0,0 0,0.1 0,0.2c0,0.1 0,0.3 0.1,0.4c0,0.2 0.2,0.4 0.4,0.5c0.2,0.1 0.4,0.6 0.6,0.6c0.2,0 0.4,-0.1 0.5,-0.1c0.2,0 0.4,0 0.6,-0.1c0.2,-0.1 0.1,-0.3 0.3,-0.5c0.1,-0.1 0.3,0 0.4,-0.1c0.2,-0.1 0.3,-0.3 0.4,-0.5c0,-0.1 0,-0.1 0,-0.2c0,-0.1 0.1,-0.2 0.1,-0.3c0,-0.1 -0.1,-0.1 -0.1,-0.2c0,-0.1 0,-0.2 0,-0.3c0,-0.2 0,-0.4 -0.1,-0.5c-0.4,-0.7 -1.2,-0.9 -2,-0.8c-0.2,0 -0.3,0.1 -0.4,0.2c-0.2,0.1 -0.1,0.2 -0.3,0.2c-0.1,0 -0.2,0.1 -0.2,0.2c0,0.3 0,0.2 0,0.3c0,0.1 0,0 0,0" fill="#FFFFFF"/>
     <path id="svg_112" d="m31.1,-2.8c0,0.1 0,0.1 0,0.2c-0.1,0.1 -0.1,0.1 -0.2,0.1c-0.1,0.1 -0.1,0.3 -0.1,0.4c-0.2,0.1 0,0.2 0,0.3c0,0 0,0.1 0,0.2c0,0.1 0,0.3 0.1,0.4c0.1,0.2 0.2,0.4 0.4,0.5c0.2,0.1 0.4,0.6 0.6,0.6c0.2,0 0.4,-0.1 0.5,-0.1c0.2,0 0.4,0 0.6,-0.1c0.2,-0.1 0.1,-0.3 0.3,-0.5c0.1,-0.1 0.3,0 0.4,-0.1c0.2,-0.1 0.3,-0.3 0.4,-0.5c0,-0.1 0,-0.1 0,-0.2c0,-0.1 0.1,-0.2 0.1,-0.3c0,-0.1 -0.1,-0.1 -0.1,-0.2c0,-0.1 0,-0.2 0,-0.3c0,-0.2 0,-0.4 -0.1,-0.5c-0.4,-0.7 -1.2,-0.9 -2,-0.8c-0.2,0 -0.3,0.1 -0.4,0.2c-0.2,0.1 -0.1,0.2 -0.3,0.2c-0.1,0 -0.2,0.1 -0.2,0.2c0,0.3 0,0.2 0,0.3c0,0.1 0,0 0,0" fill="#FFFFFF"/>
     <path id="svg_113" d="m23.5,-2.8c0,0.1 0,0.1 0,0.2c-0.1,0.1 -0.1,0.1 -0.2,0.1c-0.1,0.1 -0.1,0.3 -0.1,0.4c-0.2,0.1 0,0.2 0,0.3c0,0 0,0.1 0,0.2c0,0.1 0,0.3 0.1,0.4c0.1,0.2 0.3,0.4 0.4,0.5c0.1,0.2 0.3,0.6 0.6,0.7c0.2,0 0.4,-0.1 0.5,-0.1c0.2,0 0.4,0 0.6,-0.1c0.2,-0.1 0.1,-0.3 0.3,-0.5c0.1,-0.1 0.3,0 0.4,-0.1c0.2,-0.1 0.3,-0.3 0.4,-0.5c0,-0.1 0,-0.1 0,-0.2c0,-0.1 0.1,-0.2 0.1,-0.3c0,-0.1 -0.1,-0.1 -0.1,-0.2c0,-0.1 0,-0.2 0,-0.3c0,-0.2 0,-0.4 -0.1,-0.5c-0.4,-0.7 -1.2,-0.9 -2,-0.8c-0.2,0 -0.3,0.1 -0.4,0.2c-0.2,0.1 -0.1,0.2 -0.3,0.2c-0.1,0 -0.2,0.1 -0.2,0.2c0,0.2 0,0.1 0,0.2c0,0.1 0,0 0,0" fill="#FFFFFF"/>
     <path id="svg_114" d="m15.8,-2.8c0,0.1 0,0.1 0,0.2c-0.1,0.1 -0.1,0.1 -0.2,0.1c-0.1,0.1 -0.1,0.3 -0.1,0.4c-0.2,0.1 0,0.2 0,0.3c0,0 0,0.1 0,0.2c0,0.1 0,0.3 0.1,0.4c0.1,0.2 0.2,0.4 0.4,0.5c0.2,0.1 0.4,0.6 0.6,0.6c0.2,0 0.4,-0.1 0.5,-0.1c0.2,0 0.4,0 0.6,-0.1c0.2,-0.1 0.1,-0.3 0.3,-0.5c0.1,-0.1 0.3,0 0.4,-0.1c0.2,-0.1 0.3,-0.3 0.4,-0.5c0,-0.1 0,-0.1 0,-0.2c0,-0.1 0.1,-0.2 0.1,-0.3c0,-0.1 -0.1,-0.1 -0.1,-0.2c0,-0.1 0,-0.2 0,-0.3c0,-0.2 0,-0.4 -0.1,-0.5c-0.4,-0.7 -1.2,-0.9 -2,-0.8c-0.2,0 -0.3,0.1 -0.4,0.2c-0.2,0.1 -0.1,0.2 -0.3,0.2c-0.1,0 -0.2,0.1 -0.2,0.2c0,0.3 0,0.2 0,0.3c0,0.1 0,0 0,0" fill="#FFFFFF"/>
     <path id="svg_115" d="m8.2,-2.8c0,0.1 0,0.1 0,0.2c-0.1,0.1 -0.2,0.1 -0.2,0.1c-0.1,0.1 -0.1,0.3 -0.1,0.4c-0.2,0.1 0,0.2 0,0.3c0,0 0,0.1 0,0.2c0,0.1 0,0.3 0.1,0.4c0,0.2 0.2,0.4 0.3,0.5c0.2,0.2 0.4,0.6 0.6,0.7c0.2,0 0.4,-0.1 0.5,-0.1c0.2,0 0.4,0 0.6,-0.1c0.2,-0.1 0.1,-0.3 0.3,-0.5c0.1,-0.1 0.3,0 0.4,-0.1c0.2,-0.1 0.3,-0.3 0.4,-0.5c0,-0.1 0,-0.1 0,-0.2c0,-0.1 0.1,-0.2 0.1,-0.3c0,-0.1 -0.1,-0.1 -0.1,-0.2c0,-0.1 0,-0.2 0,-0.3c0,-0.2 0,-0.4 -0.1,-0.5c-0.4,-0.7 -1.2,-0.9 -2,-0.8c0,0.1 -0.2,0.2 -0.3,0.2c-0.2,0.1 -0.1,0.2 -0.3,0.3c-0.1,0 -0.2,0.1 -0.2,0.2c0,0.1 0,0 0,0.1c-0.1,0.1 -0.1,0 0,0" fill="#FFFFFF"/>
     <path id="svg_116" d="m0.5,-2.8c0,0.1 0,0.1 0,0.2c-0.1,0.1 -0.1,0.1 -0.2,0.1c0,0.1 -0.1,0.3 -0.1,0.4c-0.2,0.1 0,0.2 0,0.3c0,0 0,0.1 0,0.2c0,0.1 0,0.3 0.1,0.4c0,0.2 0.2,0.4 0.4,0.5c0.2,0.2 0.3,0.6 0.6,0.7c0.2,0 0.4,-0.1 0.5,-0.1c0.2,0 0.4,0 0.6,-0.1c0.2,-0.1 0.1,-0.3 0.3,-0.5c0.1,-0.1 0.3,0 0.4,-0.1c0.2,0 0.3,-0.2 0.4,-0.4c0,-0.1 0,-0.1 0,-0.2c0,-0.1 0.1,-0.2 0.1,-0.3c0,-0.1 -0.1,-0.1 -0.1,-0.2c0,-0.1 0,-0.2 0,-0.3c0,-0.2 0,-0.4 -0.1,-0.5c-0.4,-0.7 -1.2,-0.9 -2,-0.8c-0.1,0 -0.2,0.1 -0.4,0.1c-0.1,0.1 -0.1,0.2 -0.3,0.3c-0.1,0 -0.2,0.1 -0.2,0.2c0,0.1 0,0 0,0.1c0,0.1 0,0 0,0" fill="#FFFFFF"/>
    </g>
   </g>
  </pattern>
 </defs>
 <g>
  <title>Layer 1</title>
  <g stroke="null" id="svg_117">
   <path stroke="null" id="svg_118" d="m247.22104,36.15228l-3.70879,-3.60071c-1.1712,-0.94756 -3.51359,-0.37902 -5.27039,1.32658l-189.7339,192.54346c-1.7568,1.7056 -2.14719,3.97974 -1.1712,4.92729c1.1712,0.94756 3.31839,0.37902 5.07519,-1.32658l41.57749,-40.55541l21.08154,0c2.73279,0 5.66079,-0.94756 8.19838,-2.46365c2.53759,-1.51609 4.68479,-3.60071 5.85598,-5.87485l21.86234,-41.50297c1.1712,-2.27414 1.1712,-4.35876 0.1952,-5.87485l0,0l95.06215,-92.67102c1.5616,-1.7056 2.14719,-3.97974 0.976,-4.92729z"/>
   <path stroke="null" id="svg_119" d="m5.75927,188.32985c-1.7568,1.51609 -2.53759,3.79023 -1.5616,4.92729c0.976,1.13707 3.31839,0.75805 5.07519,-0.75805l32.79351,-27.47914l-3.31839,-5.30632l-32.98871,28.6162z"/>
   <path stroke="null" id="svg_120" d="m71.1511,131.47646c-0.3904,0.37902 -0.1952,0.75805 0.1952,0.75805l3.70879,0c0.3904,0 0.976,-0.18951 1.1712,-0.56853c0.1952,-0.18951 0.3904,-0.18951 0.3904,-0.37902c10.93117,-9.85459 16.20156,-21.03575 15.81116,-30.32181c0,-0.56853 -0.3904,-0.75805 -1.1712,-0.75805l-11.12637,0c-0.5856,0 -1.1712,0.56853 -0.976,0.94756c4.87999,7.95947 1.7568,19.70917 -8.00318,30.32181z"/>
   <path stroke="null" id="svg_121" d="m54.55915,132.04499l3.12319,0c0.5856,0 1.3664,-0.37902 1.5616,-0.94756c5.07519,-6.82241 6.24638,-14.02384 3.12319,-18.95113c-0.1952,-0.37902 -0.976,-0.18951 -1.1712,0.37902l-8.78398,16.67699c-0.3904,0.75805 -0.3904,1.7056 0,2.08462c0.5856,0.56853 1.3664,0.75805 2.14719,0.75805z"/>
   <path stroke="null" id="svg_122" d="m61.97673,131.28695c-0.3904,0.37902 -0.1952,0.75805 0.3904,0.75805l4.48959,0c0.3904,0 0.976,-0.18951 1.1712,-0.56853c10.73597,-10.99165 13.46876,-23.4994 7.02718,-31.07985c-0.1952,-0.18951 -0.5856,-0.37902 -0.976,-0.37902l-3.12319,0c-0.976,0 -2.14719,0.37902 -3.12319,0.94756c-0.7808,0.56853 -1.3664,1.13707 -1.7568,1.89511l-2.53759,4.73778c-0.1952,0.56853 -0.1952,0.94756 0,1.32658c5.27039,5.49583 4.48959,14.02384 -1.5616,22.36233z"/>
   <path stroke="null" id="svg_123" d="m79.73988,132.23451l5.27039,0c1.7568,0 3.90399,-1.32658 4.68479,-2.84267l13.85916,-26.34207c0.3904,-0.75805 0.3904,-1.7056 0,-2.08462c-0.3904,-0.37902 -0.976,-0.56853 -1.95199,-0.56853l-5.46559,0c-0.3904,0 -0.7808,0.37902 -0.7808,0.56853c0.1952,9.28605 -5.27039,20.46722 -15.81116,30.51132c-0.3904,0.18951 -0.1952,0.75805 0.1952,0.75805z"/>
   <path stroke="null" id="svg_124" d="m61.19593,187.00327c0.976,1.51609 2.92799,2.46365 5.66079,2.46365l11.90717,0l65.58703,-66.51846l-17.95835,-28.23718l91.15816,-76.18354c1.95199,-1.51609 2.73279,-3.79023 1.5616,-4.92729l-3.51359,-3.79023c-0.976,-1.13707 -3.31839,-0.75805 -5.27039,0.94756l-91.93896,79.78425l-47.23828,-0.18951c-2.53759,0 -5.85598,0.18951 -8.58878,1.7056c-2.73279,1.51609 -4.29439,4.35876 -5.46559,6.63289l-21.86234,41.50297c-1.1712,2.27414 -1.1712,4.35876 -0.1952,5.87485l26.15673,40.93444zm-21.66714,-48.13587l21.86234,-41.69248c0.5856,-1.13707 1.5616,-2.08462 2.92799,-2.84267c1.3664,-0.75805 2.73279,-1.13707 3.90399,-1.13707l48.21427,0.18951c1.3664,0 2.14719,0.37902 2.73279,1.13707c0.5856,0.75805 0.3904,1.89511 -0.1952,2.84267l-21.86234,41.50297c-1.1712,2.27414 -4.29439,4.16925 -6.83198,4.16925l-48.21427,-0.18951c-1.1712,0 -2.14719,-0.37902 -2.73279,-1.13707c-0.3904,-0.75805 -0.3904,-1.89511 0.1952,-2.84267z"/>
  </g>
 </g>
</svg>